<?xml version="1.0" encoding="UTF-8"?>
<!DOCTYPE svg PUBLIC "-//W3C//DTD SVG 1.1//EN" "http://www.w3.org/Graphics/SVG/1.1/DTD/svg11.dtd">
<!-- Creator: CorelDRAW 2019 (64-Bit) -->
<svg xmlns="http://www.w3.org/2000/svg" xml:space="preserve" width="36.1079mm" height="36.1079mm" version="1.1" style="shape-rendering:geometricPrecision; text-rendering:geometricPrecision; image-rendering:optimizeQuality; fill-rule:evenodd; clip-rule:evenodd"
viewBox="0 0 291.86 291.86"
 xmlns:xlink="http://www.w3.org/1999/xlink">
 <defs>
  <style type="text/css">
   <![CDATA[
    .fil0 {fill:#A98F71;fill-rule:nonzero}
   ]]>
  </style>
 </defs>
 <g id="Capa_x0020_1">
  <metadata id="CorelCorpID_0Corel-Layer"/>
  <g id="_2540300839952">
   <path class="fil0" d="M145.93 0c40.3,0 76.78,16.33 103.19,42.74 26.41,26.41 42.74,62.89 42.74,103.19 0,40.3 -16.33,76.78 -42.74,103.19 -26.41,26.41 -62.89,42.74 -103.19,42.74 -40.3,0 -76.78,-16.33 -103.19,-42.74 -26.41,-26.41 -42.74,-62.89 -42.74,-103.19 0,-40.3 16.33,-76.78 42.74,-103.19 26.41,-26.41 62.89,-42.74 103.19,-42.74zm100.5 45.43c-25.72,-25.72 -61.25,-41.63 -100.5,-41.63 -39.25,0 -74.78,15.91 -100.5,41.63 -25.72,25.72 -41.63,61.25 -41.63,100.5 0,39.25 15.91,74.78 41.63,100.5 25.72,25.72 61.25,41.63 100.5,41.63 39.25,0 74.78,-15.91 100.5,-41.63 25.72,-25.72 41.63,-61.25 41.63,-100.5 0,-39.25 -15.91,-74.78 -41.63,-100.5z"/>
   <path class="fil0" d="M142.44 135.76l0 -93.89 -13.53 61.24 13.53 32.66zm3.49 -108.61c15.11,0 29.56,2.82 42.85,7.97l4.74 -6.77 -1.44 8.11c13.79,5.82 26.25,14.17 36.8,24.47l3.51 -2.24 -2.23 3.5c10.44,10.5 18.93,22.94 24.88,36.74l7.69 -1.36 -6.4 4.47c5.37,13.48 8.34,28.18 8.38,43.57l4.05 0.9 -4.06 0.9c-0.18,15.31 -3.27,29.93 -8.72,43.33l6.75 4.72 -8.14 -1.44c-5.97,13.48 -14.38,25.65 -24.66,35.93l-0.2 0.2 2.67 4.18 -4.2 -2.68c-10.45,10.03 -22.73,18.17 -36.29,23.87l1.62 9.15 -5.35 -7.66c-13.12,4.99 -27.36,7.73 -42.24,7.73l-0.03 0 -1.32 5.96 -1.32 -6c-14.71,-0.32 -28.76,-3.32 -41.68,-8.53l-5.93 8.49 1.81 -10.24c-13.03,-5.83 -24.81,-13.94 -34.85,-23.82l-5.84 3.72 3.73 -5.85c-9.74,-10.08 -17.72,-21.89 -23.42,-34.91l-10.65 1.89 8.86 -6.19c-5.02,-12.81 -7.88,-26.71 -8.12,-41.25l-6.77 -1.5 6.76 -1.49c0.11,-14.61 2.86,-28.59 7.8,-41.49l-8.52 -5.96 10.2 1.81c5.65,-13.24 13.64,-25.25 23.44,-35.51l-3.3 -5.17 5.15 3.28 0.02 -0.02c10.13,-10.13 22.09,-18.44 35.33,-24.4l-1.63 -9.2 5.32 7.61c13.16,-5.39 27.51,-8.48 42.54,-8.78l1.08 -4.87 1.07 4.84 0.28 -0zm0.79 130.08l0 93.89 13.53 -61.24 -13.53 -32.66zm8.6 -12.87l93.89 0 -61.24 -13.53 -32.66 13.53zm-4.66 -6.97l66.39 -66.39 -52.87 33.73 -13.53 32.66zm12.44 -41.16l20.99 -50.67 -24.07 34.43 -0.24 1.2 3.32 15.04zm-5.75 -16.14l0.99 -1.42 7.87 -39.59c-5.96,-1.12 -12.08,-1.76 -18.34,-1.87l9.47 42.88zm3.7 -5.29l21.8 -31.18c-4.78,-1.72 -9.71,-3.12 -14.77,-4.17l-7.03 35.35zm24.59 -35.17l2.03 -2.9 -0.86 -0.32 -1.17 3.23zm6.11 -1.25l-1.12 6.32c3.36,1.49 6.64,3.13 9.82,4.94l3.12 -5.41c-3.81,-2.16 -7.75,-4.12 -11.82,-5.85zm-1.46 8.24l-7.53 42.5 22.81 -34.13c-4.84,-3.18 -9.95,-5.98 -15.28,-8.37zm-5 42.12l34.89 -22.26c-4.07,-3.8 -8.42,-7.29 -13.03,-10.44l-21.85 32.7zm36.54 -23.32l5.42 -3.46c-1.77,-1.71 -3.59,-3.36 -5.46,-4.96l-4.01 4.78c1.38,1.18 2.73,2.39 4.05,3.63zm7.29 -1.6l-3.45 5.4c1.52,1.58 2.99,3.2 4.41,4.86l4.78 -4.01c-1.84,-2.15 -3.76,-4.24 -5.74,-6.26zm-4.5 7.05l-23.75 37.22 34.96 -23.36c-3.36,-4.92 -7.11,-9.56 -11.21,-13.86zm-19.97 36.97l40.22 -7.12c-2.3,-5.02 -4.97,-9.84 -7.98,-14.42l-32.24 21.54zm42.15 -7.46l6.33 -1.12c-1.64,-3.76 -3.47,-7.41 -5.48,-10.95l-5.4 3.12c1.65,2.91 3.17,5.89 4.55,8.95zm7.94 2.77l-5.27 3.68 0.14 0.36 5.87 -2.14c-0.24,-0.64 -0.48,-1.28 -0.73,-1.91zm-6.88 4.81l-33.46 23.39 38.02 -7.56c-1.13,-5.44 -2.66,-10.72 -4.56,-15.83zm-35.69 26.04l42.48 9.39c-0.14,-6.04 -0.77,-11.97 -1.86,-17.73l-40.62 8.34zm44.39 9.81l5.39 1.19 0.86 0c-0.05,-6.27 -0.59,-12.42 -1.59,-18.42l-6.15 1.09c0.88,5.26 1.38,10.65 1.49,16.14zm6.25 4.02l-6.27 1.39c-0.15,5.1 -0.64,10.11 -1.46,15.02l6.15 1.08c0.95,-5.7 1.49,-11.54 1.58,-17.49zm-8.19 1.81l-40.41 8.93 38.58 7.67c1.02,-5.4 1.64,-10.95 1.83,-16.6zm-42.46 10.45l35.37 24.73c2.06,-5.38 3.7,-10.97 4.9,-16.72l-40.27 -8.01zm36.98 25.85l5.26 3.68c0.37,-0.92 0.73,-1.85 1.08,-2.79l-5.87 -2.13c-0.16,0.42 -0.31,0.83 -0.48,1.25zm3.53 7.73l-6.35 -1.12c-1.26,2.7 -2.62,5.34 -4.08,7.92l5.41 3.12c1.82,-3.21 3.5,-6.52 5.02,-9.91zm-8.28 -1.47l-37.44 -6.63 29.95 20.01c2.8,-4.26 5.31,-8.73 7.49,-13.38zm-42.08 -7.45l-1.73 -0.31 23.62 37.02c4.27,-4.42 8.17,-9.21 11.64,-14.31l-33.53 -22.4zm22.94 38.36l3.44 5.4c2.14,-2.15 4.21,-4.38 6.18,-6.7l-4.78 -4.01c-1.56,1.82 -3.17,3.59 -4.84,5.31zm1.31 7.48l-5.43 -3.46c-1.09,1.01 -2.21,2 -3.34,2.97l4.01 4.78c1.62,-1.39 3.21,-2.82 4.75,-4.29zm-7.08 -4.52l-32.86 -20.97 20.54 30.74c4.34,-2.96 8.46,-6.23 12.32,-9.77zm-36.83 -23.5l-0.12 -0.08 7.59 42.86c5.4,-2.4 10.57,-5.24 15.47,-8.45l-22.94 -34.33zm7.81 44.7l1.12 6.32c4.13,-1.75 8.13,-3.73 12,-5.93l-3.12 -5.41c-3.23,1.83 -6.57,3.51 -10,5.02zm-3.4 8.12l-0.56 -0.8 0.32 0.89 0.24 -0.09zm-4.83 -6.9l-20.85 -29.83 6.71 33.77c4.84,-1 9.56,-2.32 14.14,-3.94zm-23.56 -33.7l-1.31 -1.88 -9.22 41.75c6.17,-0.12 12.22,-0.76 18.09,-1.87l-7.56 -38.01zm-10.96 41.78l-0.82 3.7 0 2.55c6.27,-0.05 12.42,-0.6 18.41,-1.59l-1.08 -6.15c-5.38,0.89 -10.9,1.4 -16.51,1.49zm-4.87 6.22l-1.39 -6.29c-4.68,-0.19 -9.28,-0.66 -13.8,-1.41l-1.08 6.15c5.31,0.89 10.74,1.41 16.27,1.56zm-1.81 -8.21l-8.28 -37.46 -7.09 35.68c5.01,0.94 10.14,1.55 15.37,1.78zm-9.44 -41.34l-24.09 34.45c5.25,1.98 10.69,3.57 16.29,4.73l7.79 -39.19zm-25.21 36.06l-3.68 5.26c0.78,0.31 1.57,0.62 2.36,0.91l2.13 -5.87 -0.82 -0.31zm-8.58 3.18l1.13 -6.35c-2.55,-1.2 -5.06,-2.5 -7.5,-3.88l-3.12 5.41c3.08,1.75 6.25,3.36 9.49,4.83zm1.47 -8.29l6.43 -36.34 -19.4 29.04c4.14,2.72 8.47,5.16 12.97,7.3zm7.26 -40.97l0.13 -0.73 -35.34 22.55c4.17,3.94 8.66,7.55 13.42,10.8l21.8 -32.62zm-36.86 22.88l-5.41 3.45c1.88,1.84 3.83,3.61 5.83,5.32l4.01 -4.78c-1.51,-1.29 -2.99,-2.62 -4.43,-3.99zm-8.11 0.73l3.46 -5.42c-1.1,-1.18 -2.18,-2.39 -3.23,-3.61l-4.78 4.01c1.47,1.72 2.98,3.39 4.55,5.02zm4.52 -7.08l21.47 -33.64 -31.5 21.05c3.03,4.45 6.39,8.66 10.03,12.6zm19.85 -34.84l-38.64 6.84c2.24,4.81 4.82,9.43 7.7,13.83l30.93 -20.67zm-40.57 7.19l-6.34 1.12c1.57,3.55 3.31,7 5.22,10.36l5.41 -3.12c-1.54,-2.72 -2.97,-5.5 -4.28,-8.36zm-8.45 -3.97l4.45 -3.11 -4.95 1.8c0.16,0.44 0.33,0.87 0.5,1.31zm6.89 -4.81l32.15 -22.48 -36.48 7.26c1.08,5.22 2.53,10.3 4.33,15.22zm32.46 -24.47l-38.96 -8.61c0.21,5.45 0.82,10.79 1.81,16l37.16 -7.39zm-40.88 -9.03l-6.28 -1.39c0.12,5.74 0.65,11.38 1.57,16.88l6.15 -1.08c-0.78,-4.71 -1.27,-9.52 -1.44,-14.41zm-6.3 -5.22l6.27 -1.38c0.13,-5.28 0.63,-10.47 1.47,-15.55l-6.15 -1.08c-0.98,5.87 -1.52,11.88 -1.59,18.01zm8.18 -1.81l40.94 -9.04 -0.61 -0.43 -38.49 -7.66c-1.05,5.57 -1.68,11.29 -1.84,17.13zm36.46 -12.18l-30.24 -21.14c-1.65,4.64 -3,9.42 -4.01,14.33l34.25 6.81zm-35.7 -24.96l-1.44 -1.01 -0.16 0.43 1.6 0.58zm0.55 -5.94l6.33 1.12c1.44,-3.22 3.03,-6.35 4.75,-9.4l-5.41 -3.12c-2.09,3.68 -3.98,7.48 -5.67,11.4zm8.25 1.46l41.39 7.33 -33.21 -22.19c-3.1,4.71 -5.83,9.68 -8.18,14.86zm39.48 3.77l-20.64 -32.34c-3.48,3.81 -6.69,7.86 -9.61,12.14l30.25 20.21zm-21.7 -34l-3.47 -5.43c-1.41,1.49 -2.78,3.01 -4.12,4.57l4.78 4.01c0.91,-1.07 1.85,-2.12 2.8,-3.15zm-1.03 -7.92l5.4 3.45c1.66,-1.61 3.37,-3.17 5.13,-4.67l-4.01 -4.78c-2.25,1.92 -4.42,3.92 -6.52,6.01zm7.05 4.5l36.05 23 -0.4 -2.25 -21.53 -32.22c-5.03,3.43 -9.75,7.27 -14.12,11.47zm34.83 16.12l-6.35 -35.85c-4.44,2.12 -8.71,4.53 -12.79,7.21l19.14 28.64zm-6.69 -37.79l-1.13 -6.36c-3.18,1.45 -6.29,3.03 -9.31,4.75l3.12 5.41c2.38,-1.35 4.82,-2.62 7.31,-3.79zm3.34 -8.28l3.67 5.26c0.48,-0.19 0.95,-0.37 1.43,-0.55l-2.14 -5.87c-1,0.37 -1.99,0.76 -2.97,1.16zm4.79 6.86l24.94 35.67 0.03 -0.12 -8.05 -40.52c-5.82,1.2 -11.47,2.87 -16.91,4.97zm25.98 30.94l8.41 -38.06c-5.31,0.22 -10.53,0.83 -15.62,1.79l7.21 36.27zm8.83 -39.98l1.39 -6.29c-5.61,0.13 -11.13,0.67 -16.52,1.56l1.08 6.15c4.59,-0.76 9.28,-1.25 14.04,-1.43zm5.19 -2.65l0.57 2.58c5.7,0.08 11.3,0.59 16.76,1.49l1.08 -6.15c-6,-1 -12.15,-1.54 -18.41,-1.59l0 3.67zm-20.19 156.97c5.7,-13.71 11.36,-27.43 17.04,-41.15 -5.68,13.72 -11.38,27.43 -17.04,41.15zm22.14 -53.43c4.55,-10.99 9.11,-21.97 13.65,-32.96 -4.56,10.98 -9.1,21.96 -13.65,32.94l-0 0.02zm38.95 28.13c-13.07,-5.43 -26.16,-10.84 -39.24,-16.25l0 0c13.08,5.42 26.15,10.85 39.23,16.25zm0 -35.79c-12.46,5.15 -24.91,10.31 -37.36,15.48l-0.01 0c12.46,-5.16 24.92,-10.31 37.37,-15.48zm5.44 -4.56l50.67 -20.99 -42.03 7.44 -8.64 13.55zm-39.53 28.53l66.39 66.39 -33.73 -52.87 -32.66 -13.53zm41.16 12.44l50.67 20.99 -34.98 -24.46 -15.69 3.47zm-32.37 24.68c-5.45,-13.2 -10.93,-26.4 -16.4,-39.6l0 0c5.46,13.2 10.92,26.4 16.4,39.6zm4.56 5.44l20.99 50.67 -7.44 -42.03 -13.55 -8.64zm-33.18 -46.49l-93.89 0 61.24 13.53 32.66 -13.53zm4.66 6.97l-66.39 66.39 52.87 -33.73 13.53 -32.66zm-12.44 41.16l-20.75 50.08 0.13 0.05 24.08 -34.45 -3.47 -15.69zm-24.68 -68.15c11.61,4.82 23.23,9.63 34.85,14.43l0.01 0c-11.62,-4.82 -23.24,-9.64 -34.86,-14.44zm0 35.79c13.36,-5.52 26.71,-11.06 40.06,-16.59l0 -0c-13.35,5.53 -26.71,11.05 -40.06,16.59zm-5.44 4.56l-49.67 20.58 0.1 0.22 40.93 -7.25 8.64 -13.55zm39.53 -28.53l-66.39 -66.39 33.73 52.87 32.66 13.53zm-41.16 -12.44l-50.05 -20.73 -0.05 0.14 34.41 24.06 15.69 -3.47zm32.37 -24.68c4.4,10.64 8.81,21.28 13.22,31.91l0.01 0.02c-4.41,-10.65 -8.81,-21.29 -13.23,-31.93zm16.93 40.88l0.15 0.35 -0.15 -0.35zm-21.49 -46.32l-20.99 -50.67 7.23 40.84 1.23 1.84 12.53 7.99zm45.03 -66.89l-1.08 6.15c5.77,1.06 11.39,2.57 16.81,4.49l2.13 -5.87c-5.76,-2.04 -11.73,-3.65 -17.86,-4.77zm38.03 14.19l-3.12 5.41c5.02,2.96 9.78,6.3 14.25,9.99l4.01 -4.78c-4.75,-3.92 -9.81,-7.47 -15.14,-10.61zm30.88 26.36l-4.78 4.01c3.69,4.47 7.03,9.23 9.99,14.24l5.4 -3.12c-3.14,-5.33 -6.69,-10.39 -10.61,-15.14zm20.04 35.31l-5.87 2.14c1.92,5.42 3.43,11.04 4.49,16.81l6.15 -1.08c-1.13,-6.14 -2.73,-12.1 -4.77,-17.86zm4.78 60.33l-6.15 -1.08c-1.06,5.77 -2.57,11.39 -4.49,16.81l5.87 2.13c2.04,-5.76 3.65,-11.73 4.78,-17.86zm-14.19 38.03l-5.41 -3.12c-2.96,5.02 -6.3,9.78 -9.99,14.25l4.78 4.01c3.92,-4.75 7.47,-9.81 10.62,-15.14zm-26.36 30.88l-4.01 -4.78c-4.47,3.69 -9.23,7.03 -14.24,9.99l3.12 5.41c5.33,-3.14 10.39,-6.7 15.14,-10.62zm-35.31 20.03l-2.13 -5.87c-5.42,1.92 -11.04,3.43 -16.81,4.49l1.08 6.15c6.14,-1.13 12.1,-2.73 17.86,-4.77zm-60.33 4.78l1.08 -6.15c-5.77,-1.06 -11.39,-2.57 -16.81,-4.49l-2.13 5.87c5.76,2.04 11.73,3.65 17.86,4.78zm-38.03 -14.2l3.12 -5.41c-5.02,-2.96 -9.78,-6.3 -14.25,-9.99l-4.01 4.78c4.75,3.92 9.81,7.47 15.14,10.62zm-30.88 -26.36l4.78 -4.01c-3.69,-4.47 -7.03,-9.23 -9.99,-14.24l-5.41 3.12c3.14,5.33 6.69,10.39 10.61,15.14zm-20.03 -35.31l5.87 -2.14c-1.92,-5.42 -3.43,-11.04 -4.49,-16.81l-6.15 1.08c1.13,6.14 2.73,12.1 4.77,17.86zm-4.78 -60.33l6.15 1.08c1.06,-5.77 2.57,-11.39 4.49,-16.81l-5.87 -2.13c-2.04,5.76 -3.65,11.73 -4.78,17.86zm14.19 -38.03l5.41 3.12c2.96,-5.02 6.3,-9.78 9.99,-14.25l-4.78 -4.01c-3.92,4.75 -7.47,9.81 -10.62,15.14zm26.36 -30.88l4.01 4.78c4.47,-3.69 9.23,-7.03 14.24,-9.99l-3.12 -5.41c-5.33,3.14 -10.39,6.7 -15.14,10.61zm35.31 -20.03l2.14 5.87c5.42,-1.92 11.04,-3.43 16.81,-4.49l-1.08 -6.15c-6.14,1.13 -12.1,2.73 -17.86,4.77z"/>
   <path class="fil0" d="M15.61 135.77c2.85,0 5.2,1.02 7.07,3.07 1.81,1.99 2.71,4.43 2.71,7.31 0,2.78 -0.92,5.13 -2.75,7.05 -1.84,1.93 -4.14,2.89 -6.92,2.89 -2.83,0 -5.15,-0.99 -6.97,-2.97 -1.82,-1.98 -2.73,-4.4 -2.73,-7.25 0,-2.81 0.9,-5.2 2.7,-7.16 1.8,-1.96 4.1,-2.94 6.89,-2.94zm0.19 18.33c1.86,0 3.29,-1 4.27,-2.99 0.79,-1.57 1.18,-3.39 1.18,-5.45 0,-1.99 -0.42,-3.73 -1.26,-5.2 -1.04,-1.83 -2.48,-2.74 -4.3,-2.74 -1.86,0 -3.3,0.94 -4.3,2.82 -0.82,1.53 -1.23,3.31 -1.23,5.34 0,2.14 0.4,3.94 1.21,5.42 1,1.86 2.48,2.79 4.44,2.79z"/>
   <path class="fil0" d="M149.12 284.04c-0.16,0 -0.29,-0.05 -0.38,-0.16 -0.05,-0.31 -0.08,-0.6 -0.08,-0.88l0 -0.3c0.05,-0.2 0.1,-0.32 0.12,-0.36 0.03,-0.04 0.08,-0.07 0.15,-0.11 0.07,-0.04 0.15,-0.07 0.22,-0.11 0.95,-0.55 1.81,-1.36 2.58,-2.44 0.84,-1.19 1.26,-2.27 1.26,-3.26 0,-0.84 -0.29,-1.58 -0.88,-2.22 -0.58,-0.64 -1.31,-0.96 -2.16,-0.96 -1.11,0 -2.15,0.86 -3.12,2.58 -0.88,1.61 -1.75,3.21 -2.63,4.82 -1.21,1.74 -2.63,2.6 -4.27,2.6 -1.57,0 -2.87,-0.57 -3.89,-1.7 -1.02,-1.13 -1.53,-2.5 -1.53,-4.11 0,-0.37 0.04,-0.74 0.12,-1.14 0.08,-0.39 0.19,-0.83 0.32,-1.3 0,-0.04 0.05,-0.22 0.15,-0.55 0.1,-0.33 0.15,-0.54 0.15,-0.63 0,-0.11 -0.06,-0.27 -0.19,-0.48 -0.13,-0.21 -0.21,-0.36 -0.25,-0.45 -0.04,-0.09 -0.06,-0.23 -0.08,-0.41 -0.02,-0.18 -0.03,-0.39 -0.03,-0.63 0,-0.33 0.18,-0.49 0.55,-0.49l3.51 0 0.36 0.08c0.11,0.13 0.16,0.31 0.16,0.55 0,0.18 0,0.32 0,0.41l0 0.41c-0.85,0.55 -1.56,1.15 -2.13,1.81 -0.63,0.71 -0.94,1.53 -0.94,2.44 0,0.73 0.22,1.37 0.66,1.9 0.44,0.54 1.01,0.81 1.73,0.81 1.15,0 2.18,-0.85 3.1,-2.55 0.84,-1.59 1.67,-3.18 2.49,-4.77 1.24,-1.72 2.82,-2.58 4.74,-2.58 1.75,0 3.19,0.66 4.3,1.97 1.06,1.24 1.59,2.76 1.59,4.55 0,1.37 -0.29,2.76 -0.88,4.16 -0.07,0.16 -0.12,0.28 -0.14,0.36 -0.07,0.18 -0.11,0.3 -0.11,0.36 0,0.22 0.19,0.53 0.57,0.93 0.2,0.22 0.3,0.42 0.3,0.6l0 0.52c0,0.33 -0.05,0.55 -0.14,0.66l-0.33 0.05 -4.96 0z"/>
   <path class="fil0" d="M268.08 137.06c0,-0.33 0.03,-0.55 0.08,-0.67 0.05,-0.12 0.23,-0.18 0.52,-0.18l8.96 0 1.15 0c0.38,0 0.72,-0.03 1,-0.1 0.28,-0.06 0.54,-0.21 0.78,-0.43l1.23 0c0.22,0 0.36,0.06 0.41,0.19 0.05,0.13 0.08,0.32 0.08,0.6l0 3.32c0,0.22 -0.09,0.36 -0.26,0.43 -0.17,0.07 -0.4,0.11 -0.68,0.11 -0.49,0 -0.88,-0.22 -1.15,-0.68 -0.41,-0.67 -0.68,-1.06 -0.83,-1.16 -0.27,-0.2 -0.67,-0.33 -1.2,-0.39 -0.52,-0.06 -1.05,-0.1 -1.58,-0.1l-3.46 0 0 6.44 2.67 0c0.51,0 0.94,-0.28 1.28,-0.84 0.34,-0.56 0.78,-0.84 1.33,-0.84 0.27,0 0.49,0.05 0.65,0.14 0.16,0.09 0.23,0.26 0.23,0.52l0 4.03c0,0.24 -0.08,0.39 -0.25,0.47 -0.17,0.07 -0.4,0.11 -0.69,0.11 -0.52,0 -0.92,-0.29 -1.21,-0.88 -0.3,-0.58 -1.02,-0.88 -2.18,-0.88l-1.83 0 0 7.4 1.93 0 0.47 0c0.79,0 1.41,-0.01 1.84,-0.04 0.44,-0.03 0.97,-0.1 1.6,-0.21 0.63,-0.12 1.19,-0.58 1.69,-1.4 0.51,-0.81 0.98,-1.22 1.42,-1.22 0.57,0 0.85,0.27 0.85,0.82l0 3.48c0,0.18 -0.08,0.31 -0.25,0.4 -0.16,0.08 -0.35,0.12 -0.55,0.12l-13.56 0c-0.22,0 -0.36,-0.05 -0.42,-0.16 -0.06,-0.11 -0.1,-0.28 -0.1,-0.52 0,-0.66 0.23,-1.03 0.68,-1.12 0.46,-0.09 0.69,-0.35 0.69,-0.77l0.08 -5.89 -0.08 -7.81c0,-0.91 -0.23,-1.41 -0.69,-1.48 -0.46,-0.07 -0.68,-0.35 -0.68,-0.82z"/>
   <path class="fil0" d="M138.37 24.44c-1.08,0 -1.65,0.24 -1.7,0.71 -0.05,0.48 -0.36,0.71 -0.91,0.71 -0.33,0 -0.54,-0.05 -0.64,-0.15 -0.1,-0.1 -0.15,-0.31 -0.15,-0.62l0 -3.84c0,-0.09 0.06,-0.18 0.18,-0.27 0.12,-0.09 0.23,-0.17 0.34,-0.25 2.32,-1.41 4.53,-2.86 6.63,-4.36 2.43,-1.74 4.88,-3.26 7.34,-4.58l-12.13 0c-0.29,0 -0.5,0.22 -0.63,0.64 -0.13,0.43 -0.42,0.64 -0.88,0.64 -0.24,0 -0.38,-0.01 -0.44,-0.03 -0.27,-0.09 -0.41,-0.28 -0.41,-0.58l0 -3.64c0,-0.51 0.27,-0.77 0.79,-0.77l0.41 0c0.27,0 0.47,0.23 0.58,0.7 0.11,0.46 0.45,0.7 1.01,0.7l16.08 0c0.4,0 0.6,0.2 0.6,0.6l0 1.86c0,0.37 -0.18,0.67 -0.55,0.9l-4.63 3.01c-1.61,1.04 -3.22,2.08 -4.85,3.12 -1.37,0.86 -3,1.87 -4.9,3.04l10.94 0c1.39,0 2.12,-0.24 2.17,-0.71 0.05,-0.47 0.4,-0.71 1.04,-0.71 0.33,0 0.57,0.07 0.72,0.22l0.05 0.33 0 4.14c0,0.24 -0.05,0.4 -0.16,0.48 -0.11,0.08 -0.28,0.12 -0.52,0.12 -0.17,0 -0.34,0 -0.53,0 -0.18,-0.04 -0.35,-0.12 -0.49,-0.25 -0.13,-0.55 -0.29,-0.88 -0.48,-1 -0.19,-0.12 -0.58,-0.18 -1.17,-0.18l-12.72 0z"/>
  </g>
 </g>
</svg>
