<?xml version="1.0" encoding="UTF-8" standalone="no"?>
<!-- Created with Inkscape (http://www.inkscape.org/) -->

<svg
   width="49.088737mm"
   height="52.995411mm"
   viewBox="0 0 49.088737 52.995411"
   version="1.1"
   id="svg5"
   inkscape:version="1.1.2 (0a00cf5339, 2022-02-04)"
   sodipodi:docname="logocert_chico.svg"
   xmlns:inkscape="http://www.inkscape.org/namespaces/inkscape"
   xmlns:sodipodi="http://sodipodi.sourceforge.net/DTD/sodipodi-0.dtd"
   xmlns="http://www.w3.org/2000/svg"
   xmlns:svg="http://www.w3.org/2000/svg">
  <sodipodi:namedview
     id="namedview7"
     pagecolor="#ffffff"
     bordercolor="#666666"
     borderopacity="1.0"
     inkscape:pageshadow="2"
     inkscape:pageopacity="0.0"
     inkscape:pagecheckerboard="0"
     inkscape:document-units="mm"
     showgrid="false"
     inkscape:zoom="1.2399147"
     inkscape:cx="-74.601905"
     inkscape:cy="120.16956"
     inkscape:window-width="1920"
     inkscape:window-height="1019"
     inkscape:window-x="0"
     inkscape:window-y="24"
     inkscape:window-maximized="1"
     inkscape:current-layer="layer1"
     fit-margin-top="0"
     fit-margin-left="0"
     fit-margin-right="0"
     fit-margin-bottom="0" />
  <defs
     id="defs2" />
  <g
     inkscape:label="Layer 1"
     inkscape:groupmode="layer"
     id="layer1"
     transform="translate(-7.170784,-239.32425)">
    <g
       id="g78907"
       transform="translate(27.081498,-6.2871932)">
      <path
         style="fill:#e6f6f6;stroke-width:0.264583"
         d="m 0.92878912,298.06926 -2.11666662,-0.48912 -1.9558391,-0.79632 -1.9558391,-0.79632 -2.1205216,-1.27035 -2.1205216,-1.27035 -2.1722831,-2.04599 -2.172284,-2.04599 -1.485793,-2.21011 -1.485794,-2.21011 -0.690622,-1.56161 -0.690621,-1.56162 -0.40852,-1.19374 -0.408521,-1.19374 -0.367053,-1.45521 -0.367053,-1.45521 -0.160786,-3.175 -0.160785,-3.175 0.454413,-2.38125 0.454414,-2.38125 0.525806,-1.5875 0.525806,-1.5875 0.935718,-1.84316 0.935718,-1.84315 1.030855,-1.51801 1.030855,-1.518 1.652126,-1.68376 1.652126,-1.68377 1.0037553,-0.77591 1.0037556,-0.77591 1.5988152,-0.97702 1.5988151,-0.97703 1.9657911,-0.81836 1.9657909,-0.81836 2.04622157,-0.51746 2.04622133,-0.51747 2.1828124,-0.17358 2.1828125,-0.17358 v 3.47862 3.47862 h 0.2461815 0.2461816 l 0.084815,-0.59532 0.084818,-0.59531 0.7284984,0.05 0.7284958,0.05 1.9049027,-1.17445 1.904899,-1.17445 h 0.230587 0.230587 l 3.015739,1.78594 3.015737,1.78594 0.007,1.91823 0.007,1.91823 h 0.279099 0.279101 l 1.242253,0.56642 1.242256,0.56642 1.117163,0.47937 1.117166,0.47938 -0.144812,2.06306 -0.144809,2.06306 2.226741,1.25055 2.226742,1.25055 0.173593,4.96716 0.173595,4.96715 2.65e-4,2.38125 2.65e-4,2.38125 -2.579257,1.36872 -2.579258,1.36871 -0.07815,1.43531 -0.07815,1.43531 -0.89559,0.50327 -0.895588,0.50327 -1.473658,0.86215 -1.473658,0.86216 v 1.6888 1.68879 l -2.907921,1.89611 -2.907922,1.89612 -2.573917,-1.4705 -2.573917,-1.47051 H 7.6397256 7.1904896 l -0.1334532,-0.33073 -0.1334532,-0.33073 -0.020876,3.37344 -0.020794,3.37344 -1.9182292,-0.0239 -1.9182291,-0.0239 -2.11666658,-0.48911 z m 0.74891158,-3.78262 1.367755,-0.87996 0.6939307,-0.427 0.6939303,-0.42699 0.4966946,0.1255 0.4966944,0.12549 0.3307831,-0.72349 0.3307829,-0.72349 -0.2646371,-0.26464 -0.2646373,-0.26463 v -8.94292 -8.94292 H 0.92878912 -3.7014191 v 3.175 3.175 h 3.57187491 3.57187489 v -1.71979 -1.71979 h -0.396875 -0.396875 v 1.32292 1.32291 H -0.12954419 -2.9076691 v -2.51354 -2.51354 H 0.92878912 4.7652473 l -0.00324,9.06198 -0.00324,9.06198 -2.0399311,1.19062 -2.03993113,1.19063 -0.30094739,0.0784 -0.30094713,0.0784 -2.50643305,-1.50597 -2.506433,-1.50597 0.1066829,-4.12868 0.1066826,-4.12867 0.1053616,-0.33073 0.1053613,-0.33073 h 1.7280956 1.7280955 v 1.71979 1.71979 h -0.7937499 -0.79375 v 0.39688 0.39687 h 1.190625 1.19062493 v -2.38125 -2.38125 h -2.48500123 -2.485001 l -0.1893726,2.64584 -0.1893726,2.64583 h -0.1759853 -0.1759852 l -2.1105785,-0.88774 -2.1105816,-0.88775 0.02646,-0.30288 0.02646,-0.30288 0.03969,-0.90714 0.03969,-0.90714 0.3945121,-0.39452 0.3945128,-0.39451 -0.1504408,-0.7522 -0.1504407,-0.75221 5.7751989,0.0845 5.7751986,0.0845 0.3546629,0.11813 0.3546628,0.11813 -0.1669441,3.50485 -0.1669442,3.50485 -0.1335619,0.8599 -0.1335619,0.85989 H 0.3876334 -1.3201692 v -0.92604 -0.92604 h 0.79375002 0.79374998 v -0.39687 -0.39688 l -0.59531248,0.004 -0.59531249,0.004 -0.59531253,0.15954 -0.5953124,0.15953 v 1.55665 1.55664 H 0.36379127 2.8415014 l 0.1754568,-3.37344 0.1754569,-3.37344 0.1563793,-1.75787 0.1563794,-1.75787 -3.00798385,-0.15477 -3.00798405,-0.15474 -3.9026041,-0.0994 -3.9026038,-0.0994 v 0.49064 0.49064 h -0.284472 -0.284472 l -1.832195,-1.08849 -1.832194,-1.08848 v -2.63037 -2.63037 l 4.299479,0.16802 4.2994786,0.16802 0.3307292,0.10295 0.3307291,0.10295 v 1.86038 1.86039 h -3.0427082 -3.0427087 v -1.45521 -1.45521 h -0.396875 -0.396875 v 1.7198 1.71979 h 3.8463874 3.846387 l -0.076075,-2.4474 -0.076075,-2.44739 -1.7197917,-0.16657 -1.7197916,-0.16657 -3.6380211,-0.19127 -3.63802,-0.19126 v 3.27313 3.27314 l 2.372746,1.31803 2.372747,1.31803 -0.0073,0.79375 -0.0073,0.79375 -0.20452,1.24132 -0.204519,1.24131 2.6676873,1.15468 2.6676878,1.15467 0.07675,1.85457 0.07675,1.85457 2.8336668,1.75006 2.83366574,1.75006 0.0874533,0.0186 0.0874535,0.0186 z m 13.8525183,-1.90821 2.202019,-1.46526 -0.05887,-1.97433 -0.05888,-1.97433 H 16.878412 16.14233 v 2.37311 2.3731 l -3.241145,0.0743 -3.2411461,0.0743 1.7197921,0.98811 1.719791,0.98811 0.11429,0.004 0.114289,0.004 2.202018,-1.46525 z M 9.2631639,285.5093 v -5.95312 h -0.396875 -0.396875 v 5.77673 5.77674 l 0.1763898,0.17639 0.1763871,0.17639 h 0.2204879 0.2204852 z m -1.6483726,-6.91158 0.4577476,-0.34763 4.9609371,-0.008 4.960938,-0.008 v -2.64583 -2.64584 h -4.7625 -4.7625001 v 1.45521 1.45521 h 3.9871521 3.987151 l -0.08455,0.59531 -0.08455,0.59532 H 11.776705 7.2787889 l 0.082656,-11.64167 0.082658,-11.64167 -0.2770426,-0.39687 -0.2770426,-0.39688 0.056658,18.78542 0.056658,18.78542 0.076856,-5.79552 0.076853,-5.79553 z m 7.2046227,10.8625 v -0.94387 l -0.595313,0.18643 -0.595312,0.18643 -0.330729,0.12429 -0.33073,0.12429 v -0.27125 -0.27125 l -0.149886,-0.3906 -0.149889,-0.3906 0.745201,-0.29457 0.745199,-0.29457 -1.521354,0.13667 -1.521354,0.13668 v -3.05073 -3.05074 l 5.093229,0.0719 5.093229,0.0719 -0.09347,1.91823 -0.09347,1.91823 0.225763,-0.008 0.225767,-0.008 0.46302,-0.35148 0.463021,-0.35148 v -0.58354 -0.58354 l -0.289094,-0.54018 -0.289094,-0.54017 0.289094,-0.2891 0.289094,-0.2891 v -0.78225 -0.78226 l -4.167187,0.17283 -4.167188,0.17284 -1.785937,7.9e-4 -1.785937,8e-4 v 4.89479 4.89479 h 2.116666 2.116667 v -0.94387 z m 0.192926,-2.39098 -0.159853,-0.15985 -0.347266,0.13896 -0.347266,0.13897 0.507119,0.0209 0.507117,0.0209 -0.159851,-0.15985 z m 5.246608,-1.02236 0.513591,-0.38846 -0.727605,-0.008 -0.727604,-0.008 v 0.39688 0.39687 h 0.214014 0.214013 z m -3.653597,-0.40299 1.389063,-0.002 v -0.66145 -0.66146 h 0.926041 0.926042 v -0.79375 -0.79375 H 16.14233 12.438164 v 1.62435 1.62436 l 1.389062,-0.16685 1.389063,-0.16685 1.389062,-0.002 z m 9.331113,-5.4924 1.83855,-0.99219 0.0045,-2.97656 0.0045,-2.97656 H 24.07983 20.375664 v 2.24896 2.24895 h 2.762911 2.762911 l 0.08136,-1.12448 0.08136,-1.12447 0.595313,-0.0845 0.595312,-0.0845 v 1.87049 1.87048 H 25.4619 23.668972 l 0.100928,1.05833 0.100928,1.05834 h 0.113543 0.113546 z M 5.8235807,270.03118 v -2.38125 H 1.5902474 -2.6430858 v 0.25732 0.25731 l 3.7703124,0.0734 3.7703124,0.0734 0.078771,1.65364 0.078771,1.65365 H 0.14766426 -4.7597524 v -2.91042 -2.91042 H 0.15393806 5.0676283 l 0.3779763,-0.37797 0.3779761,-0.37798 v -5.67913 -5.67913 l 0.3968749,-0.1523 0.396875,-0.1523 v -0.27288 -0.27289 H 6.2204556 5.8235807 v -0.39687 -0.39688 h -0.4912001 -0.4912 L 2.54216,250.71659 0.24313942,249.39368 H 0.1209178 -0.00130383 l -2.61173927,1.70023 -2.6117396,1.70023 -0.1124456,1.76593 -0.1124458,1.76592 -0.5051869,0.30416 -0.5051869,0.30415 -1.7295397,0.97034 -1.7295397,0.97034 -0.078445,1.44675 -0.078445,1.44675 -1.509054,0.81309 -1.509055,0.81308 -1.190625,0.64522 -1.190625,0.64521 -0.07341,3.73138 -0.07341,3.73138 h 4.769764 4.7697635 v -3.175 -3.175 h -3.8364583 -3.8364562 v 1.45521 1.45521 h 0.396874 0.396875 v -1.05833 -1.05834 h 3.0427072 3.0427083 v 2.38125 2.38125 h -3.9687485 -3.96875 l 9.79e-4,-3.10885 9.79e-4,-3.10885 2.380276,-1.26782 2.380266,-1.26782 v 1.20167 1.20167 h 2.2489568 2.2489583 v 3.70417 3.70417 H 0.13503914 5.8235807 Z m -6.61458321,-5.02709 -1.71979159,-0.17325 3.10885406,-0.0457 3.10885404,-0.0457 v -5.82083 -5.82084 H 0.66420579 -2.3785025 v 2.09234 2.09235 l 1.3229167,-0.42306 1.3229166,-0.42305 v -0.19846 -0.19847 l -0.24238055,-0.1498 -0.24238055,-0.1498 -0.68366109,0.25993 -0.68366111,0.25993 v -1.31637 -1.31637 H 0.37798299 2.3407182 l 0.4185147,0.1606 0.4185145,0.1606 v 4.96252 4.96253 l -2.44739578,0.16733 -2.44739572,0.16733 -3.6187253,0.0288 -3.6187249,0.0288 -0.2838791,-0.17544 -0.2838789,-0.17545 v -0.72522 -0.72522 l 0.3175,-0.3175 0.3175,-0.3175 -0.3175,-0.3175 -0.3175,-0.3175 v -0.81815 -0.81815 l 1.7702887,-1.04716 1.7702887,-1.04716 0.2140862,-0.0882 0.2140863,-0.0882 v 0.7623 0.7623 l 3.0637045,-0.36363 3.06370484,-0.36362 0.30973262,0.11873 0.30973284,0.11873 -0.1322916,1.81975 -0.13229168,1.81975 -3.90260402,0.0732 -3.9026041,0.0732 v -1.19769 -1.1977 h 1.0583333 1.0583333 v -0.26459 -0.26458 h -0.6283854 -0.6283854 l -0.8268229,-0.16536 -0.8268229,-0.16537 v 1.88516 1.88515 h 4.7624999 4.7624999 l 0.00361,-2.05052 0.00361,-2.05052 0.1705385,-0.63738 0.1705382,-0.63738 -1.69550522,0.18628 -1.69550528,0.18627 -1.7378251,0.15472 -1.7378253,0.15472 0.018034,-2.3364 0.018034,-2.33639 2.4210829,-1.54766 2.42108325,-1.54766 1.75076455,1.07159 1.7507661,1.07158 h 0.218916 0.218916 l 0.4378819,0.48386 0.4378823,0.48385 v 5.99844 5.99844 l -2.0505208,-0.0457 -2.05052078,-0.0457 z m 18.38192951,3.82958 -0.189828,-2.78501 4.199263,0.073 4.19926,0.073 v 1.85208 1.85209 l -0.595313,0.0845 -0.595312,0.0845 v -1.34132 -1.34132 h -2.912729 -2.912727 l 0.171352,1.52136 0.171355,1.52135 0.0294,0.0354 0.0294,0.0354 4.167187,0.19092 4.167187,0.19093 v -2.38995 -2.38995 l -1.62606,-0.98778 -1.62606,-0.98778 -0.343527,0.46981 -0.343527,0.4698 -3.189788,-0.044 -3.189787,-0.044 v 3.32094 3.32095 h 0.290044 0.290044 z m -1.71318,-0.52228 v -2.24896 h -2.499714 -2.499715 l -0.07997,1.38906 -0.07997,1.38906 -0.595312,0.0845 -0.5953128,0.0846 v -2.13507 -2.13507 l 0.3307292,-0.0209 0.3307296,-0.0209 -0.2664412,-0.11202 -0.2664407,-0.11202 0.081529,-1.12386 0.081526,-1.12386 0.1849149,-4.23334 0.184912,-4.23333 0.926041,0.0273 0.926042,0.0273 1.785937,0.0389 1.785938,0.0388 v 1.85209 1.85208 h -1.455209 -1.455208 v -0.66146 -0.66146 h 0.944444 0.944443 l -0.08455,-0.59531 -0.08455,-0.59531 -1.521354,-0.0794 -1.521354,-0.0794 v 1.42725 1.42726 l -0.170628,2.78869 -0.170627,2.78868 5.73826,0.19561 5.738256,0.1956 0.187058,-0.20123 0.187055,-0.20123 -0.330729,-0.11812 -0.330729,-0.11812 v -0.35592 -0.35593 l 0.365048,-0.36505 0.365048,-0.36505 0.179568,-1.06284 0.179565,-1.06284 -1.914557,-0.84564 -1.914554,-0.84564 -0.213508,0.3364 -0.213506,0.3364 -0.0041,2.32406 -0.0041,2.32405 -2.844271,-0.0751 -2.844271,-0.0751 -0.07573,-2.57969 -0.07573,-2.57969 h 1.59708 1.597081 v 0.66146 0.66146 H 15.480872 14.55483 v 1.32292 1.32291 h 1.547292 1.547294 l 0.172497,-2.81928 0.172501,-2.81928 -0.0024,-1.34791 -0.0024,-1.3479 -2.252662,-1.38906 -2.252663,-1.38907 h -0.381465 -0.381469 l -1.993759,1.21044 -1.9936358,1.21044 v 8.71144 8.71143 h 3.5718748 3.571875 z"
         id="path78921" />
      <path
         style="fill:#d2f1f1;stroke-width:0.264583"
         d="m 2.7808724,298.34324 -1.3229166,-0.19691 -1.68717488,-0.43465 -1.68717462,-0.43465 -2.0837,-0.90298 -2.0837001,-0.90298 -1.9176666,-1.26892 -1.9176669,-1.26892 -1.9977137,-1.99217 -1.997713,-1.99217 -1.07493,-1.5875 -1.07493,-1.5875 -0.833401,-1.65292 -0.833402,-1.65292 -0.511995,-1.38979 -0.511995,-1.38979 -0.439345,-1.85208 -0.439344,-1.85209 -0.02075,-3.57187 -0.02075,-3.57188 0.346395,-1.5875 0.346394,-1.5875 0.46769,-1.45521 0.467689,-1.4552 0.695552,-1.56545 0.695553,-1.56544 1.425693,-2.13872 1.425693,-2.13873 2.075098,-2.01418 2.0750981,-2.01419 1.9267362,-1.24528 1.9267366,-1.24528 1.5097312,-0.66768 1.5097312,-0.66767 1.0614491,-0.35567 1.06144876,-0.35566 1.71979164,-0.38825 1.7197916,-0.38825 1.9843749,-0.0915 1.984375,-0.0914 0.073901,3.51655 0.073901,3.51655 0.2568284,-0.15872 0.2568284,-0.15873 v -0.51355 -0.51356 H 8.1954458 8.979811 l 1.961121,-1.19062 1.96112,-1.19063 0.231077,0.007 0.231076,0.007 2.910417,1.80654 2.910417,1.80653 0.03105,1.81863 0.03105,1.81862 2.614785,1.09047 2.614784,1.09047 -0.08269,1.56148 -0.08269,1.56148 -0.127757,0.44468 -0.127759,0.44468 2.364317,1.37905 2.364314,1.37905 0.193418,6.96357 0.193418,6.96356 -0.144661,0.37698 -0.144661,0.37698 -2.684126,1.41906 -2.684126,1.41906 0.08462,1.30268 0.08462,1.30269 -2.248958,1.36114 -2.248958,1.36113 -0.07817,1.76508 -0.07817,1.76507 -0.58329,0.30793 -0.58329,0.30792 -2.301528,1.53221 -2.301526,1.5322 -2.508022,-1.44038 -2.5080228,-1.44038 H 7.8402004 7.4373749 l -0.2696845,-0.46302 -0.2696845,-0.46302 -0.00804,3.50573 -0.00805,3.50573 -1.3890625,-0.033 -1.3890625,-0.033 z m -0.4851884,-4.41948 2.0471222,-1.24284 0.7403872,0.0564 0.7403873,0.0564 0.041681,-0.59952 0.041681,-0.59951 -0.031217,-0.39688 -0.031217,-0.39687 -0.021857,-11.57552 -0.021857,-11.57552 H 1.5788545 -2.6430858 v 0.39687 0.39688 h 3.8364582 3.8364583 v 1.5875 1.5875 H 0.13503914 -4.7597524 v -2.77813 -2.77812 H 0.15393806 5.0676283 l 0.3779763,-0.37798 0.3779761,-0.37798 v -5.70744 -5.70744 h 0.2728872 0.2728873 l 0.144445,-0.37641 0.1444456,-0.37642 -0.5496245,-0.54963 -0.549624,-0.54962 h -0.29933 -0.29933 L 2.6485807,250.71659 0.33682414,249.39368 H 0.13619722 -0.0644297 l -2.7331971,1.75267 -2.7331968,1.75267 -0.077485,1.7248 -0.077485,1.7248 -2.2489583,1.35222 -2.2489591,1.35223 0.0885,1.23829 0.0885,1.23829 -1.014543,0.62748 -1.014543,0.62749 -1.784959,0.9113 -1.784959,0.9113 -9.78e-4,3.77031 -9.79e-4,3.77031 h 4.7625 4.7625004 v -3.175 -3.175 h -3.8364583 -3.8364581 v 1.45521 1.45521 h 0.396874 0.396875 v -1.05833 -1.05834 h 3.0427091 3.0427083 v 2.38125 2.38125 h -3.9771464 -3.977147 l 0.07454,-3.1008 0.07454,-3.1008 1.984375,-1.11496 1.984375,-1.11497 0.330729,-0.0176 0.330729,-0.0176 v 1.05833 1.05833 h 2.2489587 2.2489583 v 3.84845 3.84845 l 0.9260417,-0.17373 0.9260416,-0.17372 v 3.46903 3.46902 H 0.00274747 3.706914 v -1.71979 -1.71979 H 3.1777474 2.6485807 v 1.32292 1.32291 H -0.12954419 -2.9076691 v -2.37621 -2.37621 l 0.5953125,-0.1478 0.5953125,-0.14781 3.1749999,0.0766 3.1749999,0.0766 v 8.97427 8.97428 l -2.1875284,1.29099 -2.18752837,1.29099 -2.50882563,-1.47652 -2.5088257,-1.47653 0.00361,-3.89394 0.00361,-3.89395 0.162609,-0.60706 0.1626089,-0.60706 1.6197156,0.0779 1.6197183,0.0779 0.078821,1.50365 0.078821,1.50364 -0.8704046,0.0839 -0.8704042,0.0838 -0.087713,0.46302 -0.087713,0.46302 h 1.3423169 1.34231695 v -2.52312 -2.52312 l -2.57968745,0.0757 -2.5796874,0.0757 -0.075674,2.73663 -0.075674,2.73663 -0.4534929,-0.16339 -0.4534926,-0.16339 -1.8114039,-0.72115 -1.8114042,-0.72116 0.141209,-1.41394 0.1412087,-1.41394 0.4535061,-0.33161 0.4535064,-0.33161 -0.3046653,-0.18829 -0.3046651,-0.1883 -2.315e-4,-0.44741 -2.312e-4,-0.4474 4.1674186,0.0663 4.1674189,0.0663 1.87706789,0.15085 1.87706811,0.15085 -0.098682,2.69326 -0.098682,2.69326 -0.1457994,1.65365 -0.1457997,1.65364 H 0.37856322 -1.3201692 v -0.79375 -0.79375 h 0.79375002 0.79374998 v -0.52916 -0.52917 H -0.92329417 -2.1139191 v 1.71979 1.71979 H 0.37153377 2.8569867 l 0.156801,-2.3151 0.1568011,-2.3151 0.1651699,-2.81045 0.1651698,-2.81043 -1.947528,-0.15858 -1.94752802,-0.15858 -4.92205628,-0.17051 -4.9220562,-0.17052 -0.155125,0.5932 -0.155125,0.5932 -1.934277,-1.06344 -1.934277,-1.06345 v -2.58269 -2.58269 l 3.836458,0.0562 3.8364587,0.0562 0.5665313,0.13849 0.5665317,0.13848 0.1610725,0.80537 0.1610727,0.80536 v 0.89297 0.89297 h -3.0427082 -3.0427087 v -1.32292 -1.32292 h -0.396875 -0.396875 v 1.7198 1.71979 h 3.8364587 3.8364582 v -2.48272 -2.48272 l -1.6536458,-0.15599 -1.6536458,-0.15598 -3.7703123,-0.17334 -3.770312,-0.17333 v 3.27782 3.27783 l 2.392983,1.39871 2.392984,1.39872 -0.185071,1.64123 -0.18507,1.64123 -0.0251,0.33875 -0.0251,0.33875 2.6458329,1.16072 2.6458333,1.16072 0.1322916,1.86848 0.1322917,1.86848 2.7781249,1.71243 2.77812494,1.71243 0.0567613,0.0129 0.0567613,0.0129 2.04712226,-1.24284 z m 0.8159176,-29.10639 0.5953124,-0.11466 v -5.94312 -5.94312 l -3.10885404,0.0745 -3.10885406,0.0745 -0.077373,2.21543 -0.077373,2.21543 0.3915536,-0.15025 0.3915537,-0.15026 1.07488197,-0.28943 1.07488193,-0.28944 v -0.38668 -0.38667 h -0.41426896 -0.41426923 l -0.51177241,0.27389 -0.5117727,0.27389 v -1.19993 -1.19994 H 0.66420579 2.9131641 v 4.98643 4.98642 l -3.21654006,0.17295 -3.21653974,0.17295 h -2.8590094 -2.8590094 l 0.056279,-2.41901 0.056278,-2.41902 0.5191432,-0.29296 0.5191432,-0.29296 0.9969531,-0.59532 0.9969532,-0.59531 h 0.2698411 0.2698411 v 0.66146 0.66146 H -6.6118357 -7.670169 v 1.97788 1.97788 l 4.6963541,-0.16252 4.696354,-0.16251 0.039038,-0.0294 0.039038,-0.0294 0.1938335,-2.6193 0.1938332,-2.6193 -2.08495496,0.18317 -2.08495474,0.18316 -1.3890624,0.15746 -1.3890625,0.15746 v -0.54998 -0.54998 l 0.2652988,-0.16396 0.265299,-0.16397 -0.290803,-0.54337 -0.2908028,-0.54337 0.1642248,-1.09422 0.1642247,-1.09421 2.3039509,-1.48896 2.30395087,-1.48895 1.45993243,0.81222 1.4599324,0.81221 0.9921875,0.61391 0.9921875,0.61391 v 5.94981 5.9498 l -1.2567708,-0.036 -1.2567708,-0.036 z m -9.8698754,-3.06203 -0.157607,-0.41071 0.085877,-0.74996 0.085877,-0.74995 1.0184598,-0.0837 1.01846,-0.0837 -0.1256114,-0.48034 -0.1256115,-0.48034 2.1498599,-0.17592 2.14985966,-0.17593 0.85989581,-0.14939 0.85989583,-0.14939 v 1.88152 1.88153 l -2.4473958,0.002 -2.4473958,0.002 -1.3834779,0.16618 -1.3834779,0.16619 -0.1576072,-0.41072 z m 22.3064528,30.69928 2.216664,-1.38907 -0.05799,-1.5875 -0.05799,-1.5875 0.205464,-0.47443 0.205468,-0.47443 -0.122719,-0.12272 -0.122719,-0.12272 -0.826162,0.16523 -0.826161,0.16524 -0.07599,2.284 -0.07599,2.284 H 12.702747 9.3954556 l -0.071112,-6.01927 -0.071115,-6.01927 H 8.8613227 8.4694139 l 0.010134,5.88698 0.010133,5.88698 2.1726681,1.23848 2.172666,1.23848 0.248237,0.0183 0.248238,0.0183 2.216666,-1.38906 z m -7.9583882,-13.74348 0.432472,-0.47788 h 4.9860752 4.986076 v -2.64583 -2.64584 h -4.7625 -4.7625001 v 1.45521 1.45521 h 3.9871521 3.987151 l -0.08455,0.59531 -0.08455,0.59532 -4.431771,0.0725 -4.4317704,0.0725 -0.00405,-11.71421 -0.00405,-11.71421 -0.2564791,-0.39687 -0.2564792,-0.39688 0.056544,18.78542 0.056541,18.78542 0.077108,-5.67369 0.077108,-5.67369 z m 7.2296232,10.78355 v -0.90941 l -0.926042,0.15028 -0.926042,0.15027 v -0.55578 -0.55578 l 1.256771,-0.39367 1.256771,-0.39368 -1.852083,0.15427 -1.852084,0.15428 -0.264583,0.033 -0.264583,0.033 v -2.91042 -2.91042 l 4.960937,-0.072 4.960938,-0.072 v 2.12861 2.1286 l 0.661458,-0.4334 0.661458,-0.43341 v -0.84269 -0.8427 l -0.330729,-0.35057 -0.330729,-0.35057 0.330729,-0.12127 0.330729,-0.12127 v -0.90399 -0.90399 h -1.942309 -1.942306 l -4.010818,0.1736 -4.010816,0.1736 v 4.85348 4.85348 h 2.116666 2.116667 z m 5.423958,-3.32393 0.79375,-0.52568 -0.992188,-0.002 -0.992187,-0.002 v 0.52917 0.52917 l 0.198437,-0.002 0.198438,-0.002 0.79375,-0.52568 z m -4.273254,-0.4357 2.024296,-0.17111 v -0.62264 -0.62263 h 0.926041 0.926042 l 0.0036,-0.19844 0.0036,-0.19844 0.159538,-0.59531 0.159536,-0.59531 h -3.867317 -3.867316 v 1.5875 1.5875 h 0.753829 0.75383 l 2.024295,-0.17112 z m 9.89565,-5.48405 1.918229,-1.02496 v -3.00994 -3.00993 H 24.07983 20.375664 v 2.24896 2.24895 h 2.910416 2.910417 v -1.21002 -1.21003 l 0.463021,0.0882 0.46302,0.0882 0.07877,1.65099 0.07877,1.65099 H 23.298706 19.31733 v 0.26458 0.26458 h 2.116667 2.116667 v 1.08039 1.08038 l 0.198437,-0.0882 0.198438,-0.0882 z m -3.307292,-8.2969 -1.124479,-0.10128 -1.124479,0.10128 -1.124479,0.10128 h 2.248958 2.248958 z m -4.863682,-2.91512 -0.09726,-2.84427 4.034895,-0.073 4.034896,-0.073 v 1.99127 1.99127 h -0.529167 -0.529166 v -1.32292 -1.32292 h -2.946845 -2.946844 l 0.17721,1.5078 0.177213,1.5078 0.07691,0.0769 0.07691,0.0769 4.28022,0.17645 4.28022,0.17645 v -2.39834 -2.39834 l -1.728899,-0.95032 -1.728901,-0.95033 h -0.255474 -0.255476 v 0.412 0.412 l -3.307773,-0.0813 -3.307773,-0.0813 4.81e-4,3.50573 4.82e-4,3.50573 h 0.295693 0.29569 z m -1.817047,-0.7276 v -2.24896 h -2.499714 -2.499715 l -0.07997,1.38906 -0.07997,1.38906 H 10.189206 9.6600389 v -1.98177 -1.98178 l 0.7937501,-0.16973 0.79375,-0.16973 -0.747599,-0.0313 -0.7475986,-0.0313 0.1723761,-4.96094 0.1723735,-4.96094 0.103899,-0.33073 0.103899,-0.33073 h 2.654139 2.654136 v 1.86591 1.86591 l -1.389063,-0.08 -1.389062,-0.08 v -0.52917 -0.52916 l 0.859896,-0.0829 0.859895,-0.0829 v -0.6447 -0.64469 h -1.548675 -1.548677 l -0.171114,2.02429 -0.171117,2.0243 v 2.18059 2.1806 l 4.696354,0.16501 4.696354,0.165 1.124479,0.12296 1.12448,0.12296 v -0.3762 -0.3762 l -0.278961,-0.17241 -0.278958,-0.1724 0.42908,-0.65486 0.429082,-0.65487 0.04832,-1.08498 0.04832,-1.08499 -1.984375,-0.86502 -1.984375,-0.86501 -0.0751,2.76165 -0.0751,2.76166 h -2.769174 -2.769174 v -0.62154 -0.62154 l -0.171117,-2.02429 -0.171113,-2.0243 h 1.644724 1.644726 l -0.08455,0.59532 -0.08455,0.59531 -0.859896,0.0829 -0.859896,0.0829 v 1.30615 1.30615 h 1.549242 1.549238 l 0.168672,-1.78593 0.168669,-1.78594 0.0019,-2.41396 0.0019,-2.41396 -2.447395,-1.46903 -2.447396,-1.46904 -1.190625,0.68614 -1.190625,0.68614 -0.9921875,0.62049 -0.9921875,0.62048 v 8.72793 l 5.82e-5,8.72793 h 3.5718748 3.571875 z"
         id="path78919" />
      <path
         style="fill:#b0e7e8;stroke-width:0.264583"
         d="m 3.706914,298.43477 -0.6614583,-0.0993 -1.5874999,-0.28635 -1.58749999,-0.28635 -1.58749991,-0.53758 -1.5875,-0.53758 -2.251321,-1.15121 -2.251321,-1.1512 -2.1701019,-1.7363 -2.170102,-1.73629 -1.740531,-2.17247 -1.74053,-2.17246 -1.296563,-2.64584 -1.296563,-2.64583 -0.554559,-1.98438 -0.55456,-1.98437 -0.233273,-2.59986 -0.233273,-2.59986 0.230831,-2.42723 0.230831,-2.42722 0.690332,-2.38125 0.690332,-2.38125 0.940903,-1.9324 0.940902,-1.93241 1.189151,-1.63947 1.18915,-1.63947 1.490967,-1.53856 1.490966,-1.53857 1.7197914,-1.27496 1.7197916,-1.27495 2.1743884,-1.0878 2.1743881,-1.0878 2.32352842,-0.6827 2.32352818,-0.68269 2.5796874,-0.15081 2.5796875,-0.15081 v 3.47805 3.47806 H 6.5133465 6.144779 L 5.9924838,252.43639 5.8401885,252.03951 H 5.4176791 4.99517 l -2.2502603,-1.32913 -2.25026002,-1.32912 -0.21868262,-0.0599 -0.21868235,-0.0599 -2.80539341,1.81174 -2.8053937,1.81174 v 1.68265 1.68264 l -2.3694725,1.38207 -2.3694731,1.38206 -0.07792,1.4257 -0.07792,1.4257 -2.58959,1.36578 -2.58959,1.36579 0.108885,7.14873 0.108885,7.14873 2.348413,1.39824 2.348414,1.39823 -0.09543,1.37989 -0.09543,1.37989 -0.03686,0.64064 -0.03687,0.64064 2.7046347,1.17676 2.7046343,1.17675 -0.1620462,1.55038 -0.1620462,1.55037 0.3190864,0.38448 0.3190862,0.38447 2.7673643,1.63787 2.76736435,1.63786 2.13055615,-1.28798 2.1305562,-1.28797 0.6409259,0.084 0.6409256,0.084 v -0.5481 -0.5481 h 0.2738924 0.2738924 l -0.2738924,-0.51177 -0.2738924,-0.51177 v -11.66562 -11.66561 l -4.2961147,0.0727 -4.2961146,0.0727 -0.088911,0.46302 -0.088911,0.46302 h 3.9881502 3.9881502 v 1.5875 1.5875 H 0.13503914 -4.7597524 v -2.77813 -2.77812 H 0.15393806 5.0676283 l 0.3779763,-0.37798 0.3779761,-0.37798 v -5.64379 -5.6438 l 0.5291666,-0.33047 0.5291667,-0.33047 v 18.50746 18.50747 l 0.2645833,0.16352 0.2645833,0.16352 v -5.94043 -5.94044 l 0.4185153,-0.1606 0.4185126,-0.1606 h 4.8731535 4.873152 v -2.77812 -2.77813 h -4.7625 -4.7625001 v 1.45521 1.45521 h 3.8364581 3.836458 v 0.52917 0.52916 H 11.784212 7.4260931 l -0.00934,-11.68291 -0.00934,-11.68292 -0.2755927,-0.33207 -0.2755926,-0.33207 0.2774315,-0.17146 0.2774315,-0.17146 v -0.53113 -0.53113 l 0.7276041,0.0877 0.7276042,0.0877 2.0896689,-1.27205 2.089666,-1.27204 3.038454,1.81879 3.038451,1.81879 0.03126,1.82218 0.03125,1.82218 2.631316,1.11342 2.631315,1.11341 -0.08494,1.27617 -0.08495,1.27617 -0.03283,0.78368 -0.03283,0.78369 2.28255,1.33298 2.282553,1.33298 0.197027,6.93521 0.19703,6.93521 -0.133271,0.3473 -0.133268,0.34729 -2.677041,1.39997 -2.677038,1.39996 v 1.41345 1.41345 l -2.237806,1.2561 -2.237806,1.2561 -0.0773,1.74485 -0.07731,1.74486 -2.645833,1.76983 -2.645833,1.76983 -0.356868,0.0161 -0.356867,0.0161 -2.247691,-1.32292 -2.2476911,-1.32291 H 8.0106899 7.6017103 l -0.3514831,-0.46302 -0.3514831,-0.46302 -0.00841,3.50572 -0.00842,3.50572 -1.2567708,-0.036 -1.2567708,-0.036 z m 11.83192,-5.9328 2.058705,-1.34171 0.164822,-1.10569 0.164819,-1.10568 -0.255479,-0.49143 -0.255476,-0.49143 0.289094,-0.28909 0.289095,-0.2891 v -0.36072 -0.36072 l -0.859896,0.0829 -0.859896,0.0829 -0.07645,2.3151 -0.07645,2.31511 h -3.42928 -3.4292831 v -5.95313 -5.95312 h -0.396875 -0.396875 l 0.00185,5.88698 0.00185,5.88698 2.1810801,1.25547 2.181079,1.25548 0.322546,10e-4 0.322548,0.001 2.058701,-1.34171 z m -0.71942,-3.03591 v -0.93803 l -0.926042,0.17373 -0.926042,0.17373 v -0.54324 -0.54323 l 1.256771,-0.39067 1.256771,-0.39066 -2.22531,0.15229 -2.22531,0.15228 0.179626,-2.74093 0.179623,-2.74094 0.325895,-0.20701 0.325893,-0.20701 4.564062,-0.004 4.564063,-0.004 v 2.14894 2.14894 l 0.595312,-0.39491 0.595313,-0.39491 0.04842,-2.28319 0.04842,-2.2832 H 19.738015 17.01916 l -3.21654,0.17295 -3.216539,0.17295 v 4.85413 4.85413 h 2.116666 2.116667 z m 5.423958,-3.2953 0.79375,-0.52568 -0.992188,-0.002 -0.992187,-0.002 v 0.52917 0.52917 l 0.198437,-0.002 0.198438,-0.002 0.79375,-0.52568 z m -4.299479,-0.41029 2.050521,-0.16402 v -0.63889 -0.63888 h 1.075097 1.075097 l -0.08291,-0.8599 -0.08291,-0.85989 -0.859896,0.0147 -0.859896,0.0147 -2.910417,0.0514 -2.910416,0.0514 v 1.71318 1.71318 l 0.727604,-0.11652 0.727604,-0.11653 2.050521,-0.16402 z m 10.005986,-5.47669 2.091274,-1.12448 0.0037,-2.97656 0.0037,-2.97656 h -3.836458 -3.836458 v 2.24896 2.24895 h 2.910416 2.910417 v -1.05833 -1.05833 h 0.529166 0.529167 v 1.5875 1.5875 H 23.153762 19.05272 v 0.26458 0.26458 h 2.248958 2.248959 v 1.05834 1.05833 h 0.153968 0.153969 z m -2.928382,-8.31287 -1.455208,-0.079 -1.91823,-0.15917 -1.918229,-0.15917 v -2.62326 -2.62326 h 3.96875 3.96875 v 1.85208 1.85209 h -0.529167 -0.529166 v -1.32292 -1.32292 h -2.923619 -2.923622 l 0.07935,1.51875 0.07935,1.51875 1.322917,0.17717 1.322917,0.17717 3.108854,0.10704 3.108854,0.10705 v -2.43427 -2.43427 l -1.832195,-1.08848 -1.832194,-1.08849 h -0.152181 -0.15218 v 0.55571 0.5557 l -4.828646,-0.16425 -4.828646,-0.16425 -2.20853,-0.15276 -2.2085295,-0.15277 0.1639914,-3.61213 0.1639941,-3.61212 0.147368,-1.65365 0.147367,-1.65365 h 2.636861 2.636864 l -0.07823,1.78594 -0.07823,1.78594 -1.256771,0.0806 -1.256771,0.0806 v -0.67595 -0.67596 h 0.79375 0.79375 v -0.66145 -0.66146 h -1.571289 -1.571286 l -0.142967,1.12448 -0.142968,1.12448 -0.07282,3.08523 -0.07282,3.08523 3.573013,0.15622 3.573012,0.15621 2.315104,0.12911 2.315105,0.1291 v -0.34107 -0.34108 l -0.281594,-0.28159 -0.281591,-0.28159 0.425485,-0.42549 0.425487,-0.42548 0.145124,-1.26407 0.145121,-1.26407 -1.926172,-0.79375 -1.926172,-0.79375 -0.205462,-0.085 -0.205465,-0.085 -0.07561,2.73088 -0.07561,2.73087 -2.711979,0.0754 -2.711979,0.0754 v -2.66891 -2.66892 l 1.386583,0.08 1.386586,0.08 0.08802,0.46302 0.08802,0.46302 H 15.500271 14.55483 v 1.45521 1.4552 h 1.571289 1.571287 l 0.162988,-1.12448 0.162986,-1.12447 -0.08063,-3.15596 -0.08063,-3.15596 -2.344999,-1.42019 -2.345002,-1.42019 -0.18178,0.0782 -0.181779,0.0782 -2.034037,1.19063 -2.0340375,1.19062 -0.00325,8.7974 -0.00324,8.79739 h 3.7041665 3.704166 v -2.24895 -2.24896 h -2.778125 -2.778124 v 1.32291 1.32292 H 10.056914 9.5277472 v -1.85208 -1.85209 h 3.8364578 3.836459 v 3.42362 3.42361 l 0.992187,0.10378 0.992188,0.10379 2.645833,-0.004 2.645833,-0.004 z m -25.3319351,20.60931 -2.4454776,-1.51467 3.704e-4,-2.91041 3.705e-4,-2.91042 0.1668459,-1.38906 0.166846,-1.38907 h 1.6829376 1.6829375 v 1.45521 1.45521 h -0.9260416 -0.9260417 v 0.52917 0.52916 h 1.4835158 1.48351582 l -0.16059916,-0.41851 -0.16057721,-0.41851 v -2.09503 -2.09503 H -2.9076691 -5.5535024 v 2.77813 2.77812 h -0.088137 -0.088138 l -2.094675,-0.91731 -2.094675,-0.91731 0.060583,-1.36456 0.060583,-1.36456 0.4685835,-0.38058 0.4685836,-0.38059 -0.3307291,-0.13772 -0.3307292,-0.13772 v -0.37482 -0.37483 h 2.7365848 2.7365851 l 3.21653978,0.17295 3.21654002,0.17295 v 2.30068 2.30066 l -0.1720956,2.03589 -0.1720953,2.03589 -1.61384212,-0.0777 -1.61384188,-0.0777 -0.08372,-0.7276 -0.08372,-0.72761 h 0.81132437 0.81132413 v -0.52916 -0.52917 H -0.92329417 -2.1139191 v 1.71979 1.71979 H 0.38341065 2.8807404 l 0.1397461,-1.12447 0.139746,-1.12448 0.1649931,-4.00862 0.1649934,-4.00861 -0.7515484,-0.14345 -0.7515482,-0.14345 -6.1497613,-0.17533 -6.1497611,-0.17534 -0.201618,0.54503 -0.201619,0.54503 -1.912831,-1.11243 -1.912833,-1.11242 -0.004,-2.48445 -0.004,-2.48446 4.373013,0.13264 4.3730133,0.13265 0.089837,0.10285 0.089837,0.10286 0.1804966,1.65364 0.1804964,1.65365 h -3.0558467 -3.0558466 v -1.32292 -1.32292 h -0.396875 -0.396875 v 1.85209 1.85208 h 3.7923612 3.7923612 l 0.1102428,-0.10908 0.1102432,-0.10908 -0.083927,-2.52078 -0.083926,-2.52077 -0.4452403,-0.11758 -0.44524,-0.11758 0.8598958,-0.0307 0.8598958,-0.0307 v 3.30729 3.30729 H 0.01483629 3.7310917 l -0.078235,-1.7832 -0.078235,-1.7832 -0.4630208,-0.0883 -0.4630209,-0.0883 v 1.47461 1.4746 H 0.00274747 -2.6430858 v -2.38125 -2.38125 h 3.7041666 3.7041665 v 8.82263 8.82263 l -2.2318294,1.36383 -2.23182938,1.36383 -0.0832747,-0.007 -0.0832747,-0.007 z m -10.2545229,-20.16779 -2.116666,-0.16755 4.299479,-0.0485 4.299479,-0.0485 v -3.30729 -3.30729 h -3.8364583 -3.8364577 v 1.71979 1.71979 h 0.396874 0.396875 v -1.19062 -1.19063 h 3.0530098 3.0530092 l -0.076447,2.31511 -0.076447,2.3151 h -3.836458 -3.836458 v -3.00873 -3.00873 l 2.101512,-1.14255 2.101512,-1.14256 0.213592,0.132 0.213592,0.13201 -2.6e-4,0.97657 -2.6e-4,0.97658 h 2.1830721 2.1830726 l 0.07341,3.77031 0.07341,3.77031 -2.4546602,-0.0485 -2.4546605,-0.0485 z M 3.8392057,258.98494 v -6.01939 l -3.24114574,-0.0743 -3.24114576,-0.0743 v 2.2571 2.25711 h 0.1577163 0.157716 l 1.41583193,-0.4116 1.41583194,-0.41159 -0.15528686,-0.40467 -0.15528686,-0.40467 -0.88909444,0.16679 -0.88909471,0.1668 v -1.07032 -1.07033 H 0.66420579 2.9131641 v 4.98544 4.98544 l -4.5640624,0.17313 -4.5640624,0.17313 -1.5213541,8.2e-4 -1.5213541,7.9e-4 v -1.05833 -1.05833 h 0.2738924 0.2738924 l -0.2738924,-0.51178 -0.2738924,-0.51177 v -0.78022 -0.78022 l 1.6064629,-0.95696 1.6064629,-0.95697 h 0.2456203 0.2456204 v 0.66146 0.66146 H -6.6118357 -7.670169 v 1.98437 1.98438 h 4.7316413 4.731641 l 0.1595376,-0.59532 0.1595377,-0.59531 0.00361,-2.25699 0.00361,-2.257 -3.2411458,0.31363 -3.2411457,0.31364 -0.2335697,-0.22167 -0.2335694,-0.22166 0.1976575,-0.48081 0.1976573,-0.4808 -0.029482,-1.5875 -0.029482,-1.5875 2.263839,-1.42441 2.26383923,-1.42441 0.69254236,0.31554 0.69254231,0.31554 1.8053669,1.05439 1.8053669,1.0544 v 5.94145 5.94145 l -0.5953125,1.2e-4 -0.5953125,1.3e-4 z m -10.7156247,1.91811 v -0.92604 h 1.0583333 1.0583333 v -0.6232 -0.6232 l 1.7859375,-0.16867 1.7859374,-0.16867 1.12447914,-0.002 1.12447916,-0.002 v 1.71979 1.71979 H -2.9076691 -6.876419 Z"
         id="path78917" />
      <path
         style="fill:#99e0e1;stroke-width:0.264583"
         d="m 3.2438093,298.32407 -1.6537296,-0.21501 -2.02266493,-0.55491 -2.02266467,-0.55491 -1.9121058,-0.88344 -1.9121059,-0.88345 -1.687541,-1.13743 -1.6875413,-1.13742 -2.0750981,-2.00431 -2.075098,-2.0043 -1.40757,-2.11667 -1.40757,-2.11667 -0.702167,-1.5875 -0.702167,-1.5875 -0.67706,-2.24896 -0.677059,-2.24895 -0.130706,-3.86461 -0.130705,-3.8646 0.449152,-2.21666 0.449151,-2.21665 0.774786,-2.00909 0.774786,-2.00909 1.387413,-2.34626 1.387412,-2.34626 2.248958,-2.28745 2.2489587,-2.28745 2.095037,-1.35885 2.0950366,-1.35884 2.0060049,-0.8394 2.0060047,-0.8394 1.85208324,-0.49809 1.85208326,-0.49809 2.4473958,-0.16275 2.4473958,-0.16275 v 3.47845 3.47846 H 6.6090267 6.3361394 L 6.1838442,252.43639 6.031549,252.03951 H 5.6105575 5.1895657 l -2.3949715,-1.36473 -2.39497174,-1.36473 -0.26458332,-2e-5 -0.26458333,-2e-5 -2.71197911,1.75746 -2.7119791,1.75746 v 1.69107 1.69107 l -2.3812499,1.3743 -2.3812497,1.3743 -0.0017,1.37057 -0.0017,1.37056 -0.858223,0.48944 -0.858223,0.48945 -1.777241,0.92045 -1.777241,0.92045 0.02338,7.19839 0.02338,7.19839 2.283025,1.33571 2.283024,1.33571 -0.05281,2.09455 -0.05281,2.09455 2.5663481,1.07963 2.5663474,1.07964 0.07657,1.8391 0.07657,1.83911 2.8338467,1.71146 2.83384461,1.71147 0.28764626,0.0773 0.28764626,0.0772 1.92782317,-1.18858 1.9278229,-1.18858 0.7610933,0.15222 0.761093,0.15221 v -0.67248 -0.67248 L 6.1543098,291.64984 6.485039,291.52857 6.1543098,291.178 5.8235807,290.82743 V 279.10639 267.38534 H 1.4579558 -2.9076691 v 0.5221 0.52209 l 3.90260405,0.0732 3.90260405,0.0732 v 1.45521 1.45521 l -4.82864569,0.0721 -4.82864571,0.0721 v -2.78409 -2.78409 H 0.28622972 5.3322116 l 0.3779763,-0.37798 0.3779761,-0.37798 v -5.67504 -5.67504 l 0.396875,-0.32938 0.396875,-0.32938 v 18.53762 18.53762 l 0.2645833,0.16352 0.2645833,0.16352 v -5.78353 -5.78354 l 0.3175,-0.3175 0.3175,-0.3175 h 4.9741664 4.974167 v -2.77812 -2.77813 h -4.7625 -4.7625001 v 1.45521 1.45521 h 3.8364581 3.836458 v 0.52917 0.52916 H 11.776705 7.4110806 v -2.51354 -2.51354 h 5.8208334 5.820833 v 3.70417 3.70416 h 2.248958 2.248959 v 1.05834 1.05833 h 0.167039 0.167039 l 2.081919,-1.10929 2.081919,-1.10929 v -2.99175 -2.99175 h -3.836458 -3.836458 v 2.24896 2.24895 h 2.910416 2.910417 v -1.05833 -1.05833 h 0.529166 0.529167 v 1.5875 1.5875 h -3.96875 -3.96875 v -3.30729 -3.3073 l 3.108854,-0.0388 3.108854,-0.0388 -3.548665,-0.21395 -3.548668,-0.21395 -0.353936,-0.13582 -0.353939,-0.13582 v -2.52184 -2.52185 h 3.980839 3.980839 l -0.07823,1.7832 -0.07823,1.7832 -0.46302,0.0883 -0.463021,0.0883 v -1.47461 -1.47461 H 21.69858 18.788164 v 1.71475 1.71475 l 0.595312,0.12191 0.595313,0.12191 3.902604,0.12017 3.902604,0.12017 v -2.47418 -2.47418 l -1.801329,-1.07015 -1.801325,-1.07015 h -0.183049 -0.183047 v 0.54081 0.54081 l -3.770313,-0.15129 -3.770312,-0.15129 -3.26767,-0.15311 -3.2676704,-0.15311 0.1588161,-2.61766 0.1588163,-2.61766 0.160832,-2.64583 0.160832,-2.64584 h 2.617293 2.617293 v 1.7198 1.71979 H 15.11707 14.620976 l -0.826823,0.16536 -0.826823,0.16537 v -0.52917 -0.52917 l 0.79375,-0.15875 0.79375,-0.15875 v -0.6807 -0.68069 l -1.653645,0.0788 -1.653646,0.0788 -0.168698,4.10104 -0.168699,4.10104 0.08516,0.0929 0.08516,0.0928 5.757423,0.23048 5.757426,0.23048 0.136927,-0.13693 0.136928,-0.13693 -0.314828,-0.50412 -0.314828,-0.50412 0.431948,-0.43195 0.431949,-0.43195 0.119377,-1.24238 0.119377,-1.24238 -1.813983,-0.74932 -1.813981,-0.74933 -0.330729,-0.13121 -0.330729,-0.1312 -0.0036,2.07882 -0.0036,2.07883 -0.159538,0.59531 -0.159536,0.59532 H 16.11149 13.496515 v -2.51354 -2.51355 h 1.322917 1.322917 v 0.52917 0.52917 h -0.79375 -0.79375 v 1.60012 1.60013 l 1.653645,-0.0788 1.653646,-0.0788 v -4.33721 -4.33721 l -2.248958,-1.40808 -2.248958,-1.40808 -0.222653,-0.009 -0.222628,-0.009 -2.092452,1.25396 -2.0924518,1.25396 v 8.93997 8.93996 l 3.6380208,-0.0736 3.638021,-0.0736 0.07645,-2.31511 0.07645,-2.3151 h -2.788427 -2.788425 v 1.32291 1.32292 H 10.056914 9.5277472 v -1.85935 -1.85935 l 3.7703128,0.0734 3.770312,0.0734 0.07429,3.24114 0.07429,3.24115 H 12.446308 7.6756639 v -8.94292 -8.94292 l -0.2961931,-0.29619 -0.2961904,-0.29619 0.3623363,-0.8239 0.3623389,-0.82391 0.5291667,0.0784 0.5291666,0.0784 2.1074331,-1.25347 2.107432,-1.25348 1.067567,0.65037 1.067568,0.65037 1.914985,1.12882 1.914983,1.12883 0.0033,1.79984 0.0033,1.79984 1.653646,0.76101 1.653646,0.76101 1.026287,0.41646 1.026287,0.41646 -0.174596,2.04977 -0.174593,2.04978 2.249659,1.26989 2.24966,1.2699 0.11407,0.18531 0.114069,0.18531 0.193517,7.038 0.193516,7.03801 -2.813624,1.50921 -2.813627,1.50921 -0.0048,1.37466 -0.0048,1.37466 -2.24414,1.3134 -2.24414,1.31339 -0.0036,1.20015 -0.0036,1.20015 -0.156657,0.58429 -0.156657,0.5843 -2.651818,1.73081 -2.651821,1.7308 H 13.23609 13.043436 l -2.29902,-1.32291 -2.2990199,-1.32292 H 7.9281505 7.4110806 v -0.39687 -0.39688 H 7.1464973 6.881914 v 3.43958 3.43959 l -0.9921875,-0.0335 -0.9921875,-0.0335 z m 13.2292507,-6.39147 1.521354,-1.01906 v -0.89895 -0.89896 l -0.254474,-0.66932 -0.254474,-0.66932 0.254474,-0.15727 0.254474,-0.15727 v -0.38126 -0.38126 H 16.93608 15.877747 v 2.38125 2.38125 h -3.175 -3.1749998 v -5.95313 -5.95312 H 8.9985806 8.4694139 v 5.88932 5.88932 l 2.3151041,1.36083 2.315104,1.36082 0.926042,-0.55241 0.926041,-0.55241 z m -1.653646,-2.58029 v -1.05179 l -0.683662,0.25993 -0.68366,0.25993 -0.242382,-0.1498 -0.24238,-0.1498 v -0.34737 -0.34738 l 1.389063,-0.42997 1.389062,-0.42997 -2.182812,0.14969 -2.182812,0.14968 v -2.79631 -2.79631 h 4.630208 4.630208 0.198437 0.198438 v 1.91823 1.91823 l -0.992188,0.0821 -0.992187,0.0821 v 0.51319 0.5132 h 0.16487 0.164872 l 1.533353,-0.84297 1.533356,-0.84297 -0.0074,-2.33203 -0.0074,-2.33203 h -3.634573 -3.634573 l -2.421898,0.17191 -2.421895,0.17191 v 4.85517 4.85517 h 2.248958 2.248958 v -1.05178 z m 1.359122,-3.58772 2.02058,-0.16253 -0.128624,-0.49186 -0.128622,-0.49186 1.018458,-0.0837 1.018461,-0.0837 0.08212,-0.99219 0.08212,-0.99219 H 17.117418 14.09181 l -0.826823,0.16537 -0.826823,0.16536 v 1.69871 1.69871 l 0.859896,-0.13381 0.859895,-0.1338 z m -18.4908926,6.78581 -2.4473958,-1.48132 v -1.87935 -1.87934 l 0.1719112,-2.4219 0.1719109,-2.4219 h 1.5148078 1.5148075 l 0.1653646,0.82683 0.1653646,0.82682 v 0.62839 0.62838 h -0.9260417 -0.9260416 v 0.52917 0.52916 h 1.4552083 1.45520827 v -0.88723 -0.88723 l -0.16998314,-1.62631 -0.16998341,-1.62631 H -2.9453606 -5.5535024 v 2.64583 2.64584 h -0.3626934 -0.3626938 l -1.8959287,-0.83742 -1.8959287,-0.83741 0.1806313,-1.20453 0.1806313,-1.20454 0.3581995,-0.3582 0.3581993,-0.3582 v -0.24568 -0.24569 h -0.2645833 -0.2645834 v -0.39687 -0.39688 h 1.5452429 1.5452428 l 4.442776,0.17522 4.4427761,0.17522 -0.1902145,4.25655 -0.1902145,4.25655 -0.08145,0.0824 -0.081451,0.0824 -1.61531239,-0.18275 -1.61531221,-0.18275 v -0.62728 -0.62729 h 0.92604168 0.92604165 v -0.52916 -0.52917 H -0.79100251 -2.1139191 v 1.71979 1.71979 H 0.53191413 3.1777474 v -1.67795 -1.67796 l 0.1733103,-3.61371 0.1733105,-3.61371 -3.41445628,-0.054 -3.41445602,-0.054 3.43958324,-0.14441 3.43958326,-0.14442 0.077737,-1.91823 0.077737,-1.91823 H 3.1893388 2.6485807 v 1.45521 1.4552 H 0.00274747 -2.6430858 v -2.38125 -2.38125 h 3.7041666 3.7041665 v 8.80268 8.80267 l -1.7859374,1.08778 -1.7859375,1.08779 -0.52916661,0.25773 -0.52916665,0.25772 z m -10.2526044,-13.113 -1.852083,-1.09318 -0.07607,-2.43673 -0.07607,-2.43673 h 1.688561 1.688561 l 2.8192843,0.1725 2.8192843,0.1725 v 1.67958 1.67959 H -8.46391 -11.374327 v -1.32292 -1.32292 h -0.396875 -0.396875 v 1.85209 1.85208 h 3.9539173 3.9539171 l -0.1573237,-2.77812 -0.1573236,-2.77813 h 0.43674 0.4367398 v 3.43958 3.43959 h -3.4211812 -3.4211817 l -0.08455,0.48719 -0.08455,0.4872 z m 0.926042,-7.02497 -1.984375,-0.16925 3.9026042,-0.0477 3.9026041,-0.0477 v 0.26459 0.26458 l -1.9182291,-0.0477 -1.9182291,-0.0477 z m -2.906703,-4.29948 0.0037,-2.97656 2.097573,-1.1279 2.097573,-1.12789 0.08153,1.12789 0.08152,1.1279 2.1828129,-0.0706 2.1828124,-0.0706 3.958e-4,0.33522 3.961e-4,0.33521 -3.969146,-0.0794 -3.9691452,-0.0794 v 1.75245 1.75245 l 0.46302,-0.0878 0.463021,-0.0878 0.08136,-1.1222 0.08136,-1.1222 h 2.8952034 2.8952036 v 2.24896 2.24896 h -3.836458 -3.836458 z m 18.5171194,-9.19427 v -6.08542 H 0.66420579 -2.6430858 v 2.3523 2.35231 l -0.9421032,0.10998 -0.9421029,0.10999 -0.1460931,-0.23639 -0.1460931,-0.23638 0.2623105,-0.26231 0.2623106,-0.26231 -0.1338855,-1.66793 -0.1338855,-1.66794 2.2802965,-1.48628 2.28029663,-1.48629 H 0.1673945 0.33682414 l 2.34650326,1.3428 2.3465033,1.3428 v 5.93324 5.93324 H 4.500664 3.9714974 Z m -13.2291663,4.42166 v -0.95085 l 0.2652987,-0.16396 0.265299,-0.16397 -0.265299,-0.49571 -0.2652987,-0.49572 v -0.75617 -0.75617 l 1.6770204,-0.98101 1.6770206,-0.98102 h 0.1934647 0.1934649 l -0.084548,0.59531 -0.084548,0.59532 -0.9710529,0.0808 -0.9710525,0.0809 -0.087281,1.87168 -0.087281,1.87169 0.2738787,0.10447 0.2738789,0.10447 4.6209127,-0.0726 4.6209128,-0.0726 0.075236,-2.85797 0.075236,-2.85797 -0.8689858,0.13282 -0.86898614,0.13282 -1.38906246,0.15457 -1.3890625,0.15458 v -0.12263 -0.12263 l 1.430392,-0.41583 1.4303917,-0.41583 -0.14027414,-0.53641 -0.14027414,-0.53641 -0.56251368,0.17602 -0.56251341,0.17602 -0.33072913,0.12429 -0.3307292,0.1243 v -1.08665 -1.08664 H 0.66420579 2.9131641 v 5.02709 5.02708 l -3.10885412,10e-4 -3.10885408,10e-4 -2.9765624,0.17154 -2.9765624,0.17151 z m 2.485234,-1.92976 0.1605992,-0.41852 v -0.50752 -0.50753 h 0.9260417 0.9260416 v -0.51355 -0.51355 l 0.1984375,-0.12228 0.1984375,-0.12228 2.7119791,-0.192 2.7119791,-0.19201 v 1.75388 1.75387 H -2.9359766 -6.933034 Z"
         id="path78915" />
      <path
         style="fill:#87dbdd;stroke-width:0.264583"
         d="m 3.6393384,298.33398 -1.7873675,-0.21352 -1.73141876,-0.43422 -1.73141904,-0.43423 -2.1163263,-0.90582 -2.1163264,-0.90583 -1.9055122,-1.22974 -1.9055121,-1.22974 -2.2619021,-2.28058 -2.261902,-2.28058 -0.965347,-1.47911 -0.965346,-1.47911 -0.92798,-1.84906 -0.92798,-1.84907 -0.718684,-2.36037 -0.718685,-2.36036 -0.02088,-4.49792 -0.02088,-4.49792 0.500955,-1.98437 0.500955,-1.98438 0.972866,-2.27417 0.972867,-2.27417 1.298774,-1.95363 1.298775,-1.95364 1.995433,-1.99543 1.995433,-1.99543 1.9121376,-1.27119 1.9121376,-1.27119 2.1139049,-0.91607 2.1139049,-0.91607 2.05384501,-0.52605 2.05384469,-0.52605 2.3151042,-0.16505 2.3151041,-0.16506 v 3.47921 3.4792 H 6.6090267 6.3361394 L 6.1838442,252.43639 6.031549,252.03951 H 5.6282348 5.2249207 L 2.8361055,250.6725 0.44729032,249.30548 H 0.11759727 -0.21209577 l -2.65619113,1.69775 -2.656191,1.69774 -0.014512,1.61264 -0.014512,1.61264 -0.4630208,0.40053 -0.4630208,0.40052 -1.9182291,1.12584 -1.9182284,1.12584 -0.0014,1.35891 -0.0014,1.35891 -2.637669,1.4034 -2.63767,1.40339 -0.170788,0.27634 -0.170788,0.27635 0.192729,6.93875 0.192729,6.93876 2.384598,1.39382 2.384598,1.39381 -0.177942,2.03989 -0.177941,2.03989 2.5932909,1.06362 2.5932918,1.06362 0.1322916,1.90183 0.1322917,1.90183 2.8616285,1.71725 2.86162818,1.71724 h 0.2378411 0.23784136 l 1.92761366,-1.16817 1.9276136,-1.16818 0.7276041,0.14069 0.7276042,0.14069 v -0.5071 -0.50709 l 0.3062864,-0.30629 0.3062867,-0.30629 -0.342574,-0.41277 -0.3425738,-0.41278 0.1024332,-11.57083 0.1024236,-11.57083 -4.4317707,-0.0725 -4.4317707,-0.0725 v 0.53556 0.53557 H 0.92878912 4.7652473 v 1.5875 1.5875 H 0.00274747 -4.7597524 v -2.77813 -2.77812 H 0.28622972 5.3322116 l 0.3779763,-0.37798 0.3779761,-0.37798 v -5.67913 -5.67913 l 0.396875,-0.1523 0.396875,-0.15229 v 18.51253 18.51253 h 0.2645833 0.2645833 v -5.70744 -5.70744 l 0.3779758,-0.37798 0.3779758,-0.37798 h 4.9136908 4.913691 v -2.77812 -2.77813 h -4.7625 -4.7625001 v 1.45521 1.45521 h 3.8364581 3.836458 v 0.52917 0.52916 H 11.776705 7.4110806 v -2.51354 -2.51354 h 5.8208334 5.820833 v 3.70417 3.70416 h 2.248958 2.248959 v 1.05834 1.05833 h 0.138165 0.138163 l 2.110795,-1.06129 2.110793,-1.06128 v -3.03976 -3.03975 h -3.836458 -3.836458 v 2.38125 2.38125 h 2.910416 2.910417 v -1.19063 -1.19062 h 0.542369 0.542372 l -0.07935,1.52135 -0.07935,1.52136 -3.902604,0.0732 -3.902604,0.0732 v -3.31436 -3.31437 l 3.505729,-0.0389 3.505729,-0.0389 -4.084261,-0.23095 -4.084259,-0.23095 -0.137295,-0.13729 -0.137293,-0.13729 -0.109484,-2.50328 -0.109485,-2.50327 h 4.00031 4.000309 v 1.71979 1.71979 h -0.529167 -0.529166 v -1.32291 -1.32292 H 21.69858 18.788164 v 1.7281 1.72809 l 0.330729,0.10178 0.330729,0.10178 4.17672,0.1504 4.176718,0.1504 -0.07568,-2.56925 -0.07568,-2.56925 -1.718612,-0.99853 -1.718614,-0.99852 h -0.168756 -0.168759 l -0.13135,0.50229 -0.131353,0.50229 -2.743776,-0.10514 -2.74378,-0.10514 -4.195537,-0.16175 -4.1955377,-0.16175 0.1535377,-1.88905 0.153538,-1.88904 0.171749,-3.38263 0.171751,-3.38263 2.547332,0.0753 2.547334,0.0753 0.07877,1.65364 0.07877,1.65365 h -1.33554 -1.335543 v -0.39688 -0.39687 h 0.79375 0.79375 v -0.79375 -0.79375 h -1.678781 -1.678784 l -0.162396,4.15831 -0.162396,4.15831 0.270569,0.16722 0.270568,0.16722 5.605507,0.15503 5.605505,0.15504 0.264583,-0.26505 0.264584,-0.26504 -0.433504,-0.3205 -0.433502,-0.3205 0.499647,-0.61704 0.49965,-0.61704 v -1.12192 -1.12192 l -1.886265,-0.83314 -1.886264,-0.83315 h -0.230402 -0.230402 l -0.0024,1.25677 -0.0024,1.25677 -0.166846,1.38906 -0.166846,1.38907 H 16.10527 13.49629 v -2.51354 -2.51355 h 1.322917 1.322916 v 0.52917 0.52917 h -0.79375 -0.79375 v 1.5875 1.5875 h 1.571885 1.571887 l 0.121965,-0.19844 0.121964,-0.19844 0.08573,-4.1749 0.08574,-4.17489 -2.369137,-1.4475 -2.368971,-1.4475 h -0.247092 -0.247089 l -2.075264,1.21664 -2.075265,1.21665 -0.1386469,0.56929 -0.1386496,0.5693 0.073991,8.33437 0.073993,8.33438 3.7703125,0.0734 3.770312,0.0734 v -2.38852 -2.38851 h -2.778125 -2.778124 v 1.32291 1.32292 H 10.189206 9.7923305 v -1.85208 -1.85209 h 3.5718745 3.571875 v 3.3073 3.30729 H 12.305872 7.6756639 v -8.86713 -8.86714 l -0.3307291,-0.56014 -0.3307292,-0.56015 0.3307292,-0.11977 0.3307291,-0.11977 v -0.51132 -0.51132 l 0.7276042,0.0497 0.7276041,0.0497 1.8520838,-1.13529 1.852083,-1.13528 0.132291,-0.074 0.132292,-0.074 2.910417,1.78389 2.910416,1.7839 0.07674,1.84413 0.07674,1.84413 2.569091,1.08667 2.569091,1.08666 -0.08392,2.08033 -0.08392,2.08032 2.2659,1.27186 2.265899,1.27187 0.107397,0.17451 0.107395,0.17451 0.193363,7.0324 0.193362,7.03239 -1.688994,0.87297 -1.688991,0.87297 -1.124479,0.65259 -1.124479,0.65259 -7.94e-4,1.36392 -7.94e-4,1.36392 -2.234258,1.27894 -2.234258,1.27894 -0.179586,1.82253 -0.179589,1.82253 -2.749192,1.75259 -2.749196,1.75259 -2.592287,-1.48062 -2.5922864,-1.48062 H 7.7248209 7.4112208 v -0.26459 -0.26458 H 7.1545433 6.897863 l -0.074049,3.37344 -0.074052,3.37344 -0.6614583,0.0368 -0.6614583,0.0368 -1.7873673,-0.21352 z m 11.9738256,-5.77103 2.248958,-1.51031 0.08086,-1.10792 0.08086,-1.10791 -0.28861,-0.53927 -0.288613,-0.53928 h 0.273894 0.273892 v -0.56566 -0.56566 l -2.050521,0.17717 -2.050521,0.17717 -1.256771,0.15799 -1.25677,0.158 v -2.81221 -2.81222 h 4.906382 4.906383 l -0.07774,1.91809 -0.07774,1.91809 -0.992188,-0.0863 -0.992187,-0.0863 v 0.84445 0.84445 l 0.595312,-0.38353 0.595313,-0.38353 1.256771,-0.73037 1.256771,-0.73038 v -0.75299 -0.753 l -0.251246,-0.15527 -0.251243,-0.15528 0.155808,-1.31555 0.155805,-1.31554 h -4.495959 -4.495958 l -1.626312,0.16998 -1.626312,0.16998 v 4.85711 4.85709 h 2.397223 2.39722 l -0.08212,-0.99218 -0.08212,-0.99219 -0.529166,0.0998 -0.529167,0.0998 -0.386739,0.0325 -0.386736,0.0325 -0.08674,-0.41657 -0.08674,-0.41657 1.465665,-0.40794 1.465662,-0.40795 v 2.21358 2.21358 h -3.175 -3.1749998 v -6.10382 -6.10382 l -0.5953125,0.0845 -0.5953124,0.0845 v 5.94995 5.94995 l 2.3812497,1.3806 2.38125,1.38061 0.132292,-0.006 0.132291,-0.006 2.248959,-1.51031 z m 1.190625,-6.81362 1.852083,-0.17923 -0.330729,-0.11859 -0.330729,-0.1186 v -0.37482 -0.37483 h 1.058333 1.058333 v -1.05833 -1.05834 h -3.79971 -3.79971 l -0.149159,1.64494 -0.149156,1.64493 0.140943,0.22806 0.140944,0.22805 1.228238,-0.14201 1.228235,-0.14201 z m -18.9177081,6.8712 -1.984375,-1.20886 -0.3638857,-0.34796 -0.3638856,-0.34795 0.1933048,-4.12458 0.1933048,-4.12459 h 1.5596433 1.5596433 v 1.45521 1.45521 h -0.7937499 -0.79375 v 0.52917 0.52916 h 1.4552083 1.45520827 v -2.09502 -2.09503 l -0.16059916,-0.41851 -0.16059917,-0.41852 H -2.897103 -5.4757551 l -0.1514123,2.53789 -0.1514126,2.53788 -0.1462156,0.14622 -0.1462156,0.14621 -1.9808071,-0.86364 -1.9808067,-0.86365 0.167572,-1.22257 0.167572,-1.22258 0.3521977,-0.35219 0.3521977,-0.3522 v -0.24568 -0.24569 h -0.2645833 -0.2645834 v -0.41711 -0.41711 l 5.886979,0.18669 5.886979,0.18668 0.089977,0.0779 0.089977,0.0779 -0.1915973,4.1213 -0.1915969,4.12131 H 0.34574589 -1.3569732 l 0.084548,-0.59531 0.084548,-0.59531 0.85989582,-0.0829 0.85989581,-0.0829 v -0.51241 -0.5124 h -1.4552083 -1.45520833 v 1.69425 1.69425 l 2.57968747,0.10683 2.57968743,0.10682 0.1731089,-0.14743 0.173109,-0.14743 0.1895382,-5.21655 0.1895385,-5.21656 -3.00848043,-0.0847 -3.00848067,-0.0847 3.10885406,-0.0566 3.10885404,-0.0566 v -1.98438 -1.98437 H 3.1777474 2.6485807 v 1.45521 1.4552 H 0.00274747 -2.6430858 v -2.38125 -2.38125 h 3.7041666 3.7041665 l -0.00938,8.7974 -0.00938,8.7974 -2.0893666,1.25677 -2.08936668,1.25677 -0.34864806,-0.007 -0.34864595,-0.007 z m -10.4510419,-13.20518 -1.852083,-1.09909 0.09524,-2.3566 0.09524,-2.35661 0.08066,-0.0877 0.08066,-0.0877 4.255865,0.19067 4.2558646,0.19068 v 1.68297 1.68298 h -2.7781249 -2.7781247 v -1.32292 -1.32292 h -0.673547 -0.673547 l 0.07823,1.78594 0.07824,1.78594 4.0530597,0.0731 4.0530599,0.0731 -0.1865633,-2.78511 -0.1865632,-2.78512 h 0.4329824 0.4329824 v 3.45291 3.45291 l -3.370015,-0.0434 -3.3700149,-0.0434 -0.135714,0.50925 -0.135714,0.50924 z m 1.719792,-7.00292 -1.719792,-0.17325 3.3734379,-0.0457 3.3734374,-0.0457 v 0.26459 0.26458 l -1.6536458,-0.0457 -1.6536458,-0.0457 z m -3.702279,-4.29948 0.0019,-2.97656 2.114779,-1.08402 2.11478,-1.08401 v 1.18334 1.18334 l 2.248958,-0.11804 2.2489583,-0.11804 3.969e-4,0.28329 3.95e-4,0.2833 -3.969146,-0.0794 -3.9691452,-0.0794 v 1.73305 1.73305 h 0.529166 0.529167 v -1.19062 -1.19063 h 2.7781247 2.778125 v 2.24896 2.24896 h -3.7041667 -3.704166 l 0.0019,-2.97656 z m 18.5189454,-9.19427 v -6.08542 H 0.66420579 -2.6430858 v 2.38125 2.38125 H -3.5119769 -4.380868 l -0.060216,-2.07491 -0.060216,-2.07491 2.2494279,-1.49697 2.24942766,-1.49696 H 0.14195058 0.2863464 l 2.3717421,1.3863 2.3717422,1.3863 v 5.88974 5.88974 H 4.500664 3.9714974 Z m -13.0307289,5.14312 -0.1984374,-0.20423 v -0.73404 -0.73404 l 0.2652987,-0.16396 0.265299,-0.16397 -0.265299,-0.49571 -0.2652987,-0.49572 v -0.76867 -0.76868 l 0.5953124,-0.29089 0.5953125,-0.29089 1.1244792,-0.69262 1.1244791,-0.69261 v 0.67645 0.67646 h -0.891423 -0.8914228 l -0.1639985,0.99218 -0.1639986,0.99219 -0.00291,0.99219 -0.00291,0.99219 h 5.0270832 5.0270832 v -2.91953 -2.91953 l -1.38906248,0.15457 -1.38906246,0.15457 -0.92604166,0.1121 -0.9260416,0.11209 1.4314582,-0.52044 1.43145825,-0.52043 0.0961239,-0.0961 0.0961237,-0.0961 -0.16985271,-0.44263 -0.16985271,-0.44263 -0.56397946,0.17649 -0.56397921,0.17648 -0.33072916,0.12429 -0.3307292,0.1243 v -1.08665 -1.08664 H 0.66420579 2.9131641 v 5.02709 5.02708 h -4.3268129 -4.3268129 l -1.5601661,0.16014 -1.5601662,0.16014 z m 2.4473958,-3.15148 v -0.93331 h 0.9260417 0.9260416 v -0.51134 -0.51133 l 0.4630208,-0.1312 0.4630208,-0.13121 2.4607776,-0.18036 2.4607776,-0.18036 -0.079528,1.6828 -0.0795277,1.68279 -3.7703124,0.0734 -3.7703124,0.0734 z"
         id="path78913" />
      <path
         style="fill:#70d4d6;stroke-width:0.264583"
         d="m 3.9714974,298.31662 -2.2489583,-0.21805 -2.36036956,-0.6842 -2.36036954,-0.68419 -1.8212334,-0.91402 -1.8212337,-0.91401 -1.6392299,-1.10444 -1.6392303,-1.10444 -2.0044827,-2.00448 -2.004483,-2.00449 -1.067744,-1.5875 -1.067743,-1.5875 -0.699701,-1.38345 -0.699701,-1.38345 -0.512183,-1.39468 -0.512183,-1.39467 -0.466493,-1.71979 -0.466493,-1.71979 -0.0067,-4.36563 -0.0067,-4.36562 0.745104,-2.50988 0.745105,-2.50988 1.045536,-2.16008 1.045537,-2.16007 1.310281,-1.73084 1.310281,-1.73084 1.342108,-1.34211 1.342108,-1.34211 1.3726214,-1.03369 1.3726209,-1.0337 1.605783,-0.90542 1.6057829,-0.90542 1.8338003,-0.68921 1.83380033,-0.68922 1.58749996,-0.39971 1.58749991,-0.39971 2.1828125,-0.18116 2.1828124,-0.18116 -0.00841,3.54377 -0.00841,3.54377 -0.3233301,-0.42452 -0.3233301,-0.42452 -0.6165114,-0.19567 -0.6165112,-0.19567 -2.2641808,-1.30761 -2.26418107,-1.30761 -0.18151819,0.0757 -0.18151818,0.0757 -2.65281876,1.70839 -2.6528191,1.7084 -0.2370799,1.85365 -0.2370799,1.85365 -2.1166666,1.21217 -2.1166673,1.21218 -0.0794,1.44349 -0.0794,1.44348 -2.620912,1.39545 -2.620912,1.39546 -0.175697,0.28428 -0.175697,0.28429 0.193585,6.96953 0.193583,6.96954 2.382688,1.37513 2.382688,1.37513 -0.175783,2.01514 -0.175783,2.01515 2.6583343,1.16997 2.6583343,1.16997 v 1.7887 1.7887 l 2.8823927,1.73668 2.88239273,1.73667 H 0.27194566 0.5971916 l 1.9129115,-1.16135 1.9129118,-1.16136 0.7002827,0.13387 0.7002831,0.13387 v -0.5071 -0.50709 l 0.2890945,-0.2891 0.2890944,-0.28909 -0.3277092,-0.61233 -0.3277095,-0.61233 0.1394756,-11.45462 0.1394757,-11.45462 H 1.5404145 -2.9444732 l 0.084548,0.59532 0.084548,0.59531 3.77031245,0.0734 3.77031235,0.0734 v 1.31565 1.31565 H 0.00274747 -4.7597524 v -2.64583 -2.64583 H 0.28622972 5.3322116 l 0.3779763,-0.37798 0.3779761,-0.37798 v -5.70744 -5.70744 h 0.2645833 0.2645833 v 18.38855 18.38854 h 0.396875 0.396875 v -5.70744 -5.70744 l 0.3779758,-0.37798 0.3779758,-0.37798 h 4.9136908 4.913691 v -2.91041 -2.91042 h -4.7625 -4.7625001 v 1.58024 1.58023 l 3.7670081,0.0734 3.767007,0.0734 0.08885,0.46302 0.08885,0.46302 H 11.796105 7.4110806 v -2.51354 -2.51354 h 5.8208334 5.820833 v 3.70417 3.70416 h 2.234462 2.234461 l 0.08064,1.17235 0.08064,1.17235 2.182813,-1.19487 2.182812,-1.19488 v -3.02018 -3.02018 h -3.836458 -3.836458 v 2.38125 2.38125 h 2.910416 2.910417 v -1.19063 -1.19062 h 0.396875 0.396875 v 1.5875 1.5875 H 23.153789 19.31733 v -3.30729 -3.3073 l 3.770313,-0.0395 3.770312,-0.0395 -4.359037,-0.24052 -4.359036,-0.24052 -0.09249,-0.0925 -0.09248,-0.0925 -0.151413,-2.53788 -0.151413,-2.53789 h 4.007625 4.007622 v 1.71979 1.71979 H 25.138166 24.609 v -1.32291 -1.32292 h -2.91042 -2.910416 v 1.85208 1.85209 h 2.076021 2.076019 l 2.421898,0.17191 2.421895,0.17191 -0.003,-2.61931 -0.003,-2.6193 -1.915258,-1.09559 -1.915257,-1.09558 -0.09004,0.54214 -0.09003,0.54213 -6.897698,-0.17248 -6.8977004,-0.17248 -0.067643,-0.0678 -0.067646,-0.0678 0.2756474,-5.15938 0.275649,-5.15937 0.08095,-0.0922 0.08095,-0.0922 2.531592,0.1898 2.531594,0.1898 v 1.55604 1.55604 h -1.32286 -1.322917 v -0.39688 -0.39687 h 0.79375 0.79375 v -0.79375 -0.79375 h -1.681673 -1.681673 l -0.189132,4.13523 -0.189132,4.13524 0.217159,0.19684 0.21716,0.19683 5.886979,0.17195 5.886979,0.17194 v -0.35006 -0.35006 l -0.311248,-0.31124 -0.311248,-0.31125 0.420722,-0.46928 0.420722,-0.46927 0.07818,-1.11321 0.07819,-1.1132 -0.186621,-0.18663 -0.186621,-0.18662 -1.779344,-0.75069 -1.779344,-0.75069 H 19.28002 19.095156 l -0.187582,2.64583 -0.187579,2.64584 h -2.611749 -2.61175 v -2.51354 -2.51355 h 1.322917 1.322916 v 0.52917 0.52917 h -0.79375 -0.79375 v 1.5875 1.5875 h 1.719792 1.719792 v -2.73932 -2.73931 l 0.165946,-1.58769 0.165947,-1.58769 -2.633742,-1.59105 -2.633739,-1.59105 -2.228562,1.38241 -2.2285584,1.38241 v 8.83512 8.83513 l 3.7703124,0.0734 3.770312,0.0734 v -2.38852 -2.38851 H 13.364204 10.58608 v 1.32291 1.32292 H 10.189206 9.7923305 v -1.85208 -1.85209 h 3.5718745 3.571875 v 3.3073 3.30729 H 12.305872 7.6756639 v -8.94292 -8.94292 l -0.3175,-0.3175 -0.3174999,-0.3175 0.3174999,-0.3175 0.3175,-0.3175 v -0.50493 -0.50493 l 0.6074781,0.15247 0.6074806,0.15246 2.1119834,-1.26957 2.111984,-1.26957 2.902931,1.77774 2.902934,1.77774 0.07698,1.84399 0.07698,1.84399 2.638629,1.12668 2.638626,1.12669 -0.164579,2.01977 -0.164576,2.01977 2.422768,1.42555 2.422766,1.42556 -0.04235,3.2854 -0.04235,3.2854 0.161783,0.16179 0.161784,0.16178 v 3.61009 3.61008 l -2.711979,1.43905 -2.711979,1.43905 -0.132291,1.4391 -0.132292,1.4391 -2.248958,1.34069 -2.248959,1.34068 -0.07676,1.71961 -0.07676,1.71961 -2.777691,1.80651 -2.777691,1.80651 -2.536481,-1.47726 -2.5364805,-1.47726 H 7.7748351 7.4110806 v -0.26459 -0.26458 h -0.396875 -0.396875 v 3.43958 3.43959 l -0.1984375,-0.0358 -0.1984375,-0.0358 z m 11.6563216,-5.72971 2.359668,-1.52136 -0.04708,-2.21796 -0.04708,-2.21796 -2.254658,0.17331 -2.25466,0.17331 -1.002091,0.16023 -1.00209,0.16025 v -2.81194 -2.81195 h 4.894791 4.894792 v 1.43357 1.43357 l -0.1606,0.41852 -0.160599,0.41851 h -0.897734 -0.897734 v 0.8049 0.80491 l 1.256771,-0.71181 1.256771,-0.71181 0.595312,-0.36378 0.595313,-0.36378 v -0.67275 -0.67275 l -0.291902,-0.54542 -0.291899,-0.54542 0.311528,-0.19254 0.311529,-0.19253 -0.08578,-0.8983 -0.08577,-0.89829 -5.291667,0.0814 -5.291666,0.0814 -0.859896,0.14651 -0.859896,0.1465 v 4.86535 4.86534 h 2.38125 2.38125 v -1.06337 -1.06337 l -0.727604,0.17125 -0.727604,0.17126 -0.264584,0.0322 -0.264583,0.0322 v -0.37162 -0.37163 l 1.389063,-0.47216 1.389062,-0.47216 v 2.23285 2.23285 h -3.175 -3.1749998 v -5.93108 -5.93107 l 0.3307292,-0.14479 0.3307296,-0.14478 -0.9260421,0.0566 -0.9260416,0.0566 v 5.94545 5.94545 l 2.3697427,1.39674 2.369744,1.39673 h 0.09577 0.09577 z m 2.234303,-6.94734 1.058333,-0.20458 -0.463021,-0.029 -0.46302,-0.029 v -0.39687 -0.39688 h 1.058333 1.058333 v -1.0654 -1.06541 l -3.902604,0.0732 -3.902604,0.0732 -0.0788,1.81074 -0.0788,1.81074 2.327757,-0.18811 2.327759,-0.1881 z m -20.0703109,6.88445 -2.0786449,-1.27659 -0.2489372,-0.24894 -0.2489369,-0.24893 0.1847569,-4.14149 0.184757,-4.14148 h 1.5475124 1.5475124 v 1.45521 1.45521 h -0.812152 -0.812152 l 0.084548,0.59531 0.084548,0.59532 h 1.3229167 1.32291661 l 0.07572692,-2.57969 0.07572693,-2.57969 H -2.7281049 -5.4781191 l -0.1699835,1.62631 -0.1699831,1.62631 v 1.03736 1.03735 l -0.5553551,-0.17627 -0.5553554,-0.17626 -1.4290196,-0.63198 -1.4290198,-0.63198 v -1.23094 -1.23094 l 0.4630208,-0.34378 0.4630208,-0.34378 -0.3490616,-0.57105 -0.3490616,-0.57105 0.1084289,-0.10842 0.1084289,-0.10843 5.8989141,0.17738 5.8989138,0.17737 -0.1665914,2.13963 -0.1665912,2.13963 -0.00159,2.05052 -0.00158,2.05052 H 0.53191413 -1.0555858 v -0.66146 -0.66146 h 0.79374995 0.79374998 v -0.52916 -0.52917 h -1.4552083 -1.45520833 v 1.68354 1.68354 l 2.54796737,0.18704 2.54796733,0.18703 0.2092838,-0.21693 0.2092841,-0.21693 0.2124617,-4.89479 0.2124618,-4.89479 0.00685,-0.26458 0.00685,-0.26459 -2.64583326,-0.14719 -2.64583324,-0.1472 2.71197907,-0.0512 2.71197773,-0.0512 v -1.98438 -1.98437 H 3.1777474 2.6485807 v 1.45521 1.4552 H 0.00274747 -2.6430858 v -2.38125 -2.38125 H 0.92878912 4.500664 v 8.84373 8.84373 l -1.9937594,1.21044 -1.99375949,1.21044 -0.32134465,-0.0215 -0.32134465,-0.0215 z m -10.4229171,-13.16144 -1.653646,-0.98016 v -2.49505 -2.49504 l 2.182812,0.16992 2.1828127,0.16992 2.1828125,0.002 2.1828124,0.002 v 1.71979 1.71979 h -2.7781249 -2.7781247 v -1.32292 -1.32291 h -0.661459 -0.661458 v 1.85208 1.85208 h 4.1371491 4.137149 l -0.1860952,-2.77812 -0.186095,-2.77813 h 0.4145709 0.4145711 v 3.47808 3.47808 l -3.3390135,-0.1442 -3.3390134,-0.14421 -0.131428,0.50259 -0.131429,0.50258 -0.167579,-0.004 -0.167579,-0.004 z m 4.167187,-6.83456 0.396875,-0.0876 1.1244792,-0.0871 1.1244791,-0.0871 v 0.20543 0.20543 l -1.5213541,-0.0307 -1.5213542,-0.0307 z m -6.027936,-4.38842 0.07481,-2.94991 2.050521,-1.13316 2.050521,-1.13316 v 1.16235 1.16236 l 2.3151039,0.0882 2.3151041,0.0882 -4.0348958,0.0544 -4.0348952,0.0544 v 1.71979 1.71979 h 0.529166 0.529167 v -1.19062 -1.19063 h 2.7781247 2.778125 v 2.24896 2.24896 h -3.7128317 -3.712832 z m 18.6452534,-3.30638 -0.181901,-0.1819 v -5.90903 -5.90903 H 0.66420579 -2.6430858 v 2.38125 2.38125 h -0.9260416 -0.9260417 v -0.38126 -0.38126 l 0.277431,-0.17146 0.2774312,-0.17146 -0.2927675,-0.35277 -0.2927676,-0.35276 0.081482,-1.2321 0.081482,-1.2321 2.2882767,-1.45305 2.28827638,-1.45306 2.34193182,1.40783 2.3419315,1.40783 v 5.79878 5.79878 l -0.2811198,0.0937 -0.2811198,0.0937 z m -13.4110673,-1.62333 v -0.7458 l 0.2890945,-0.28909 0.2890944,-0.2891 -0.2890944,-0.54017 -0.2890945,-0.54018 0.00245,-0.61271 0.00245,-0.6127 1.7173424,-0.97631 1.7173424,-0.9763 v 0.64557 0.64558 H -6.876419 -7.9347523 v 1.98437 1.98438 h 5.0270832 5.0270832 v -2.91227 -2.91226 l -1.91822913,0.13286 -1.91822907,0.13287 0.92604159,-0.28402 0.92604165,-0.28402 0.20711133,-0.19963 0.20711106,-0.19963 -0.17229851,-0.449 -0.17229852,-0.44901 -0.56397946,0.17649 -0.56397921,0.17648 -0.33072913,0.12429 -0.3307292,0.1243 v -0.95435 -0.95435 H 0.67017452 2.9251013 l -0.072114,4.82864 -0.072115,4.82865 -6.0192707,0.0711 -6.0192706,0.0711 z m 2.6458332,-2.29087 v -0.91007 l 0.9921875,-0.0821 0.9921875,-0.0821 -0.035701,-0.45674 -0.035702,-0.45675 0.8294516,-0.12809 0.8294512,-0.1281 2.08882638,-0.16893 2.08882662,-0.16893 -0.1705975,0.85299 -0.17059725,0.85299 v 0.89296 0.89297 H -2.9076691 -6.6118357 Z m 4.4979166,-3.45555 v -0.13229 h 0.1322916 0.1322917 v 0.13229 0.13229 h -0.1322917 -0.1322916 z"
         id="path78911" />
      <path
         style="fill:#4fccce;stroke-width:0.264583"
         d="m 2.7808724,298.16517 -0.79375,-0.0971 -1.58749994,-0.41174 -1.58749996,-0.41174 -1.4012955,-0.51067 -1.4012954,-0.51067 -1.1122462,-0.55947 -1.1122461,-0.55947 -1.5875,-1.06925 -1.5874999,-1.06925 -1.3695014,-1.16397 -1.369501,-1.16397 -1.652363,-2.09778 -1.652364,-2.09778 -0.687079,-1.26023 -0.687079,-1.26023 -0.719957,-1.66446 -0.719957,-1.66447 -0.580897,-2.17199 -0.580898,-2.17199 0.0065,-4.10105 0.0065,-4.10104 0.550342,-1.98437 0.550341,-1.98438 0.389681,-1.07718 0.38968,-1.07719 0.726509,-1.43635 0.726509,-1.43636 1.033692,-1.52449 1.033693,-1.52449 1.607037,-1.71792 1.607037,-1.71793 1.5910852,-1.19604 1.5910851,-1.19604 1.6848907,-0.94225 1.6848907,-0.94224 1.3888542,-0.51275 1.3888543,-0.51274 1.98437493,-0.49808 1.98437497,-0.49808 2.0505208,-0.17949 2.0505207,-0.17949 v 3.32987 3.32987 H 6.3810548 6.144779 L 5.9924838,252.1718 5.8401885,251.77493 H 5.4304199 5.0206512 l -2.3887487,-1.34659 -2.38874906,-1.34658 -0.37938762,0.14558 -0.37938762,0.14559 -2.6512321,1.737 -2.6512318,1.73701 v 1.68064 1.68064 l -2.1828124,1.30033 -2.1828129,1.30032 -0.07969,1.36969 -0.07969,1.36968 -2.037618,1.13262 -2.037618,1.13261 -0.762636,0.39453 -0.762636,0.39453 0.192556,7.145 0.192556,7.14501 0.101352,0.16399 0.101351,0.16398 2.23181,1.25261 2.231811,1.2526 -0.04265,2.111 -0.04265,2.11101 2.5796879,1.09132 2.5796874,1.09133 v 1.77613 1.77614 l 3.0383106,1.87124 3.03831036,1.87123 2.04987204,-1.2445 2.049872,-1.24451 0.7326505,0.0769 0.7326509,0.0768 v -0.49619 -0.49619 l 0.3121538,-0.31215 0.3121538,-0.31216 -0.3517477,-0.65725 -0.3517476,-0.65724 0.1413497,-11.38664 0.1413496,-11.38665 H 1.5597116 -2.9076691 v 0.66146 0.66146 H 0.92878912 4.7652473 v 1.32292 1.32291 H 0.00274747 -4.7597524 v -2.64583 -2.64583 H 0.28622972 5.3322116 l 0.3779763,-0.37798 0.3779761,-0.37798 v -5.55953 -5.55953 l 0.2645833,-0.16352 0.2645833,-0.16353 v 18.52815 18.52814 l 0.396875,-0.15229 0.396875,-0.1523 v -5.67913 -5.67913 l 0.3779758,-0.37798 0.3779758,-0.37798 h 5.0549328 5.054934 l -0.0751,-2.84427 -0.0751,-2.84427 H 13.231914 8.3371223 v 1.5875 1.5875 l 3.9026037,0.0732 3.902604,0.0732 v 0.3898 0.3898 H 11.908997 7.6756639 v -2.51354 -2.51354 h 5.5562501 5.55625 l 0.004,3.50573 0.004,3.50573 0.230926,0.36459 0.230928,0.36459 2.013979,-0.18873 2.013979,-0.18872 0.004,0.88247 0.004,0.88247 0.202527,0.31864 0.202531,0.31864 2.108523,-1.14583 2.108538,-1.14584 0.07454,-3.07541 0.07454,-3.07541 H 24.22052 20.375664 v 2.38125 2.38125 h 2.910416 2.910417 v -1.19063 -1.19062 h 0.396875 0.396875 v 1.5875 1.5875 H 23.153789 19.31733 v -3.175 -3.175 h 4.769766 4.769762 l -0.07341,3.72356 -0.07341,3.72356 -2.579258,1.36967 -2.579257,1.36967 -5.29e-4,1.37772 -5.29e-4,1.37772 -2.38125,1.38893 -2.38125,1.38893 v 1.65277 1.65276 l -0.595312,0.43 -0.595313,0.43 -2.177081,1.4151 -2.177085,1.41511 L 10.743,293.69205 8.2428248,292.25618 H 7.8551626 7.4674977 L 7.3152009,291.8593 7.1629067,291.46243 H 6.8900181 6.6171322 v 3.43958 3.43958 l -1.5213541,-0.0396 -1.5213542,-0.0396 -0.7937499,-0.0971 z m 12.8676476,-5.53442 2.341626,-1.47752 -0.03298,-2.37226 -0.03297,-2.37225 -0.692497,0.13447 -0.692497,0.13447 -1.852083,0.15953 -1.852083,0.15953 -0.727604,0.13721 -0.727604,0.13721 v -2.79915 -2.79915 h 4.762499 4.7625 v 1.85209 1.85208 h -1.455208 -1.455208 v -0.39687 -0.39688 h 1.058333 1.058333 v -1.05833 -1.05834 h -3.96875 -3.96875 v 1.89114 1.89114 l 2.503718,-0.176 2.503718,-0.17599 0.803574,-0.16072 0.803574,-0.16071 v 0.69453 0.69453 h 0.236802 0.236802 l 1.745123,-0.99219 1.745125,-0.99218 0.0024,-0.745 0.0024,-0.745 -0.265298,-0.49572 -0.2653,-0.49571 0.2653,-0.16397 0.265298,-0.16396 v -1.04335 -1.04335 l -5.886979,0.15511 -5.886979,0.15511 -0.33073,0.1018 -0.330729,0.1018 v 5.04569 5.04569 l 2.315104,-0.0765 2.315104,-0.0764 0.08106,-1.1183 0.08105,-1.11829 -0.874805,0.06 -0.874673,0.06 -0.08148,-0.25038 -0.08148,-0.25038 1.139817,-0.34092 1.139817,-0.34091 0.198438,-0.004 0.198437,-0.004 v 2.11667 2.11667 h -3.175 -3.1749998 v -5.94104 -5.94103 l 1.7859378,-0.0926 1.785937,-0.0926 -2.447396,-0.0518 -2.4473954,-0.0518 v 6.03923 6.03922 l 2.3151044,1.34777 2.315104,1.34776 0.235926,0.0214 0.235926,0.0213 2.341629,-1.47751 z m -17.99256,-0.30257 -2.479079,-1.50989 0.1639749,-1.56882 0.163975,-1.56883 v -2.60702 -2.60703 h 1.5875 1.5874999 v 1.45521 1.45521 h -0.7937499 -0.79375 v 0.66146 0.66146 h 1.4552083 1.45520827 v -2.64584 -2.64583 H -2.8984132 -5.7995739 l -0.075402,2.6217 -0.075402,2.62171 -1.9182291,-0.80656 -1.9182291,-0.80656 v -1.19066 -1.19067 l 0.4630208,-0.34378 0.4630208,-0.34378 -0.3490616,-0.57105 -0.3490616,-0.57105 0.1046605,-0.10465 0.1046604,-0.10467 5.7702816,0.2544 5.7702814,0.2544 0.03037,0.0745 0.030369,0.0745 -0.079404,4.0349 -0.079404,4.03489 H 0.51865612 -1.0555858 v -0.50814 -0.50815 l 0.80895926,-0.17768 0.80895955,-0.17767 -0.0813554,-0.51529 -0.0813551,-0.51528 -0.19843749,0.0105 -0.1984375,0.0105 H -1.1999663 -2.4026801 l 0.078235,1.78594 0.078235,1.78594 2.68661402,0.0751 2.68661398,0.0751 0.1492965,-2.45637 0.1492964,-2.45637 0.1222603,-2.97657 0.1222599,-2.97656 -2.1644204,-0.0493 -2.16442074,-0.0493 2.24895824,-0.14914 2.2489583,-0.14914 0.077737,-1.91823 0.077737,-1.91823 h -0.67305 -0.6730497 v 1.32291 1.32292 H -0.00795281 -2.6644866 l 0.076846,-2.18281 0.076846,-2.18281 3.50572905,-0.0738 3.50572905,-0.0738 v 8.80789 8.80789 l -2.0924522,1.25396 -2.09245246,1.25396 -0.09036,-0.003 -0.0903602,-0.003 z m -10.279997,-12.99743 -1.646576,-0.9652 -0.0071,-2.41131 -0.0071,-2.41131 3.770312,0.11063 3.7703127,0.11063 0.5953124,0.12291 0.5953125,0.12291 v 1.45017 1.45016 H -8.3171915 -11.08082 l -0.08064,-1.25677 -0.08064,-1.25677 h -0.529167 -0.529166 l -0.07774,1.91823 -0.07774,1.91823 h 4.1524973 4.1524978 l -0.1573237,-2.77812 -0.1573236,-2.77813 h 0.3820422 0.3820419 v 3.46357 3.46356 l -3.4395832,-0.19023 -3.4395837,-0.19022 v 0.56312 0.56312 l -0.198437,-0.027 -0.198438,-0.027 z m 5.1523055,-6.84046 0.5953125,-0.11467 0.5953125,0.11467 0.5953125,0.11466 h -1.190625 -1.190625 z m 27.6489575,-0.80388 -2.182812,-0.0891 v -1.80831 -1.80831 l -0.165365,-0.82683 -0.165364,-0.82682 h 3.869531 3.869531 v 1.71979 1.71979 h -0.396875 -0.396875 v -1.33158 -1.33158 l -2.959632,0.0748 -2.959632,0.0748 0.0706,1.71913 0.0706,1.71913 0.05467,0.0547 0.05467,0.0547 4.554151,0.18487 4.554148,0.18487 v -2.54498 -2.54497 l -2.050521,-1.19128 -2.05052,-1.19128 -0.08975,0.56046 -0.08974,0.56045 -6.916451,-0.18872 -6.9164494,-0.18872 -0.014288,-0.0494 -0.014288,-0.0494 0.2444354,-5.09323 0.244435,-5.09323 h 2.476577 2.476577 v 1.5875 1.5875 h -1.190625 -1.190625 v -0.38011 -0.38012 l 0.859895,-0.0829 0.859896,-0.0829 0.08027,-0.69184 0.08027,-0.69183 -1.637358,-0.18524 -1.637358,-0.18525 -0.243081,0.24308 -0.24308,0.24308 -0.157343,4.23056 -0.157345,4.23055 6.021494,0.18877 6.02149,0.18877 0.15934,-0.15934 0.15934,-0.15934 -0.352134,-0.56385 -0.352131,-0.56386 0.386209,-0.28401 0.386213,-0.284 0.175728,-1.33057 0.175728,-1.33057 -2.236996,-0.95375 -2.236997,-0.95376 -0.145608,0.14561 -0.145626,0.1456 v 2.60174 2.60174 H 16.14233 13.496497 v -2.38125 -2.38125 h 1.322917 1.322916 v 0.39687 0.39688 h -0.959114 -0.959115 l 0.165365,0.82682 0.165364,0.82682 v 0.76068 0.76068 h 1.679216 1.679217 l 0.182976,-4.27992 0.182977,-4.27992 -0.340838,-0.33123 -0.340839,-0.33123 -2.243516,-1.31756 -2.243516,-1.31755 -1.196067,0.68317 -1.196068,0.68317 -1.0583331,0.69148 -1.0583333,0.69149 -0.069665,8.91967 -0.069665,8.91968 h 3.8399774 3.839977 v -2.51354 -2.51355 h -2.778125 -2.778124 v 1.45521 1.45521 H 10.189206 9.7923305 v -1.85208 -1.85209 h 3.5718745 3.571875 v 3.3073 3.30729 H 12.305872 7.6756639 v -8.88094 -8.88093 l -0.2652977,-0.49572 -0.2653003,-0.49572 0.2653003,-0.16396 0.2652977,-0.16396 v -0.51355 -0.51356 h 0.3748273 0.3748246 l 0.088196,0.2459 0.088194,0.24589 2.2365972,-1.32247 2.236596,-1.32247 0.863352,0.48126 0.863351,0.48127 2.161551,1.28121 2.16155,1.2812 -0.15621,1.67283 -0.156213,1.67283 0.583256,0.37181 0.583253,0.37181 2.169824,0.90749 2.169824,0.90749 -0.161835,1.5875 -0.161835,1.5875 -0.02363,0.39108 -0.0236,0.39108 2.116666,1.28073 2.116667,1.28074 0.352517,0.20298 0.352518,0.20297 -0.190048,3.08615 -0.190045,3.08614 -3.072889,-0.0539 -3.072886,-0.0539 z m -34.669081,-3.52349 0.07481,-2.92659 1.947537,-1.04216 1.947537,-1.04216 h 0.102984 0.102984 v 1.04803 1.04804 l 2.3151039,0.0882 2.3151041,0.0882 -4.1671874,0.0544 -4.1671876,0.0544 v 1.71979 1.71979 h 0.661458 0.661459 v -1.19062 -1.19063 h 2.7781247 2.778125 v 2.24896 2.24896 h -3.7128317 -3.712832 z m 18.4633524,-9.37653 v -5.95313 H 0.54221515 -2.8870671 l -0.076447,2.3151 -0.076447,2.31511 -0.7276041,0.0837 -0.7276042,0.0837 v -0.3924 -0.3924 l 0.3025241,-0.10084 0.302524,-0.10085 -0.302524,-0.56527 -0.3025241,-0.56527 0.00557,-1.00958 0.00557,-1.00958 2.2597329,-1.45521 2.25973291,-1.45521 0.18209101,0.0445 0.18209074,0.0445 2.18281244,1.22801 2.1828124,1.22802 v 5.80508 5.80508 H 4.3683724 3.9714974 Z m -12.9114769,2.96254 -0.016218,-2.19683 0.5107228,-0.31896 0.5107228,-0.31895 v 1.98662 1.98662 h 5.0270832 5.0270832 v -2.93148 -2.93147 l -1.78593747,0.1488 -1.78593743,0.14881 0.87233994,-0.27083 0.87234022,-0.27083 0.15497942,-0.40387 0.15497942,-0.40387 -0.27966961,-0.27967 -0.2796696,-0.27967 -0.8137956,0.28369 -0.81379589,0.28369 v -0.91228 -0.91227 H 0.66420579 2.9131641 v 4.72942 4.72943 l -0.8268229,0.16537 -0.8268229,0.16536 h -5.0916397 -5.0916394 z m 2.3281438,-0.84588 v -0.92604 h 1.0583333 1.0583333 v -0.51295 -0.51296 l 1.1244792,-0.13922 1.1244791,-0.13921 1.52135413,-0.0972 1.52135412,-0.0972 v 1.67541 1.67541 H -2.9076691 -6.6118357 Z m -0.396875,-2.51354 0.79375,-0.52568 0.1984375,-0.002 0.1984375,-0.002 v 0.52917 0.52917 l -0.9921875,-0.002 -0.9921875,-0.002 z"
         id="path78909" />
    </g>
  </g>
</svg>
